<svg xmlns="http://www.w3.org/2000/svg" viewBox="0 0 565 38.8"><title>Porsche logotype logo</title><path d="M727.56,499.89v8.5H794.5v7.25H727.56v8.5H794.5v7.22H719v-38.7H794.5v7.22Zm-27.09,8.44H648.75V492.6h-8.5v38.69h8.5V516.85h51.72v14.45H709V492.6h-8.5ZM560.14,501.2v21.6a8.54,8.54,0,0,0,8.49,8.6h0l61.65-.06v-8.5h-60.5a1.14,1.14,0,0,1-1.11-1V502.36a1.37,1.37,0,0,1,1.39-1.2h60.22v-8.5H568.77a8.6,8.6,0,0,0-8.64,8.55Zm-18.74,7.17-54.31,0h0a1.35,1.35,0,0,1-1.43-1.27s0,0,0-.07v-5.8a1.37,1.37,0,0,1,1.37-1.37h61.69v-7.23h-63.2a8.5,8.5,0,0,0-8.4,8.59v5.8a8.6,8.6,0,0,0,8.6,8.6h0l54.31,0a1.37,1.37,0,0,1,1.43,1.32v0h0v5.82a1.35,1.35,0,0,1-1.36,1.34H478.28v7.22H541.4A8.58,8.58,0,0,0,550,522.8h0V517a8.63,8.63,0,0,0-8.6-8.6Zm-74.12,22.78v.1h-8.56v-1.52a8.6,8.6,0,0,0-8.6-8.6H402.69v10.18h-8.5V492.63h64.45a8.54,8.54,0,0,1,8.55,8.53h0v8.39a8.54,8.54,0,0,1-8.23,8.59,14.32,14.32,0,0,1,8.31,13Zm-8.61-28.52a1.48,1.48,0,0,0-1.45-1.47l-54.52,0v11.48h54.68a1.39,1.39,0,0,0,1.29-1.42h0Zm-74.74-1.45v21.6h0a8.52,8.52,0,0,1-8.47,8.56h-54.5a8.58,8.58,0,0,1-8.64-8.52V501.21a8.6,8.6,0,0,1,8.64-8.56h54.56A8.5,8.5,0,0,1,383.92,501.18Zm-8.48,1.45a1.51,1.51,0,0,0-1.49-1.46H322.26a1.37,1.37,0,0,0-1.39,1.2V521.8a1.14,1.14,0,0,0,1.11,1h52.09a1.45,1.45,0,0,0,1.37-1.42Zm-73.12-1.45v11.41a8.54,8.54,0,0,1-8.53,8.55H238v10.19h-8.5V492.64h64.23a8.54,8.54,0,0,1,8.59,8.5v0Zm-8.52,1.46a1.48,1.48,0,0,0-1.45-1.47l-54.33,0v11.48h54.5a1.37,1.37,0,0,0,1.29-1.42Z" transform="translate(-229.5 -492.6)"/></svg>