<svg width="1440" height="766" viewBox="0 0 1440 766" fill="none" xmlns="http://www.w3.org/2000/svg">
<path d="M1288 518L1288 587" stroke="#383838" stroke-linecap="round"/>
<path d="M1313 515L1271.5 473.5" stroke="#383838" stroke-linecap="round"/>
<path d="M1326.5 494.5L1285 453" stroke="#383838" stroke-linecap="round"/>
<path d="M1327 361.5L1362 326.5" stroke="#383838" stroke-linecap="round"/>
<path d="M1308 341L1331 318" stroke="#383838" stroke-linecap="round"/>
<path d="M1285 453V371" stroke="#383838" stroke-linecap="round"/>
<path d="M1362 327L1362 266" stroke="#383838" stroke-linecap="round"/>
<path d="M1384 327L1384 266" stroke="#383838" stroke-linecap="round"/>
<path d="M1399 297L1399 236" stroke="#383838" stroke-linecap="round"/>
<path d="M1430 229L1430 168" stroke="#383838" stroke-linecap="round"/>
<path d="M1308 422.5V341" stroke="#383838" stroke-linecap="round"/>
<path d="M1331 318L1331 252" stroke="#383838" stroke-linecap="round"/>
<path d="M1327 464L1327 392" stroke="#383838" stroke-linecap="round"/>
<path d="M1362 389L1362 363" stroke="#383838" stroke-linecap="round"/>
<path d="M1271.5 473.5V401" stroke="#383838" stroke-linecap="round"/>
<path d="M1341 540V590" stroke="#383838" stroke-linecap="round"/>
<path d="M1362 555L1362 586" stroke="#383838" stroke-linecap="round"/>
<path d="M256 595L256 560" stroke="#383838" stroke-linecap="round"/>
<path d="M1080.68 507.351C1084.68 507.351 1087.92 504.106 1087.92 500.104C1087.92 496.101 1084.68 492.856 1080.68 492.856C1076.67 492.856 1073.43 496.101 1073.43 500.104C1073.43 504.106 1076.67 507.351 1080.68 507.351Z" fill="#383838" stroke="#383838" stroke-miterlimit="10" stroke-linecap="round"/>
<path d="M1104.93 591.412C1106.43 591.412 1107.64 590.2 1107.64 588.706C1107.64 587.211 1106.43 586 1104.93 586C1103.44 586 1102.23 587.211 1102.23 588.706C1102.23 590.2 1103.44 591.412 1104.93 591.412Z" fill="#383838" stroke="#383838" stroke-miterlimit="10" stroke-linecap="round"/>
<path d="M1029.71 697.412C1031.2 697.412 1032.41 696.2 1032.41 694.706C1032.41 693.211 1031.2 692 1029.71 692C1028.21 692 1027 693.211 1027 694.706C1027 696.2 1028.21 697.412 1029.71 697.412Z" fill="#383838" stroke="#383838" stroke-miterlimit="10" stroke-linecap="round"/>
<path d="M1249.25 452.036C1250.14 452.036 1250.85 451.322 1250.85 450.441C1250.85 449.56 1250.14 448.846 1249.25 448.846C1248.37 448.846 1247.66 449.56 1247.66 450.441C1247.66 451.322 1248.37 452.036 1249.25 452.036Z" fill="#383838" stroke="#383838" stroke-miterlimit="10" stroke-linecap="round"/>
<path d="M382.99 516.469C384.883 516.469 386.418 514.934 386.418 513.042C386.418 511.149 384.883 509.614 382.99 509.614C381.097 509.614 379.563 511.149 379.563 513.042C379.563 514.934 381.097 516.469 382.99 516.469Z" fill="#383838" stroke="#383838" stroke-miterlimit="10" stroke-linecap="round"/>
<path d="M114.427 116.855C116.32 116.855 117.855 115.32 117.855 113.427C117.855 111.534 116.32 110 114.427 110C112.534 110 111 111.534 111 113.427C111 115.32 112.534 116.855 114.427 116.855Z" fill="#383838" stroke="#383838" stroke-miterlimit="10" stroke-linecap="round"/>
<path d="M256 560C258.209 560 260 558.209 260 556C260 553.791 258.209 552 256 552C253.791 552 252 553.791 252 556C252 558.209 253.791 560 256 560Z" fill="#383838" stroke="#383838" stroke-miterlimit="10" stroke-linecap="round"/>
<path d="M520.427 722.855C522.32 722.855 523.855 721.32 523.855 719.427C523.855 717.534 522.32 716 520.427 716C518.534 716 517 717.534 517 719.427C517 721.32 518.534 722.855 520.427 722.855Z" fill="#383838" stroke="#383838" stroke-miterlimit="10" stroke-linecap="round"/>
<path d="M980.427 554.855C982.32 554.855 983.855 553.32 983.855 551.427C983.855 549.534 982.32 548 980.427 548C978.534 548 977 549.534 977 551.427C977 553.32 978.534 554.855 980.427 554.855Z" fill="#383838" stroke="#383838" stroke-miterlimit="10" stroke-linecap="round"/>
<path d="M1125.85 720.709C1129.64 720.709 1132.71 717.64 1132.71 713.855C1132.71 710.069 1129.64 707 1125.85 707C1122.07 707 1119 710.069 1119 713.855C1119 717.64 1122.07 720.709 1125.85 720.709Z" fill="#383838" stroke="#383838" stroke-miterlimit="10" stroke-linecap="round"/>
<path d="M1290.43 276.855C1292.32 276.855 1293.85 275.32 1293.85 273.427C1293.85 271.534 1292.32 270 1290.43 270C1288.53 270 1287 271.534 1287 273.427C1287 275.32 1288.53 276.855 1290.43 276.855Z" fill="#383838" stroke="#383838" stroke-miterlimit="10" stroke-linecap="round"/>
<path d="M1310 5C1311.1 5 1312 4.10457 1312 3C1312 1.89543 1311.1 1 1310 1C1308.9 1 1308 1.89543 1308 3C1308 4.10457 1308.9 5 1310 5Z" fill="#383838" stroke="#383838" stroke-miterlimit="10" stroke-linecap="round"/>
<path d="M1383.66 470.269L1375.47 478.458" stroke="#383838" stroke-miterlimit="10" stroke-linecap="round"/>
<path d="M255.931 601.623L251.645 605.446L255.468 609.732L259.753 605.909L255.931 601.623Z" fill="#383838" stroke="#383838" stroke-miterlimit="10" stroke-linecap="round"/>
<path d="M43.6711 484.665L37.3658 490.289L42.9901 496.594L49.2953 490.97L43.6711 484.665Z" fill="#383838" stroke="#383838" stroke-miterlimit="10" stroke-linecap="round"/>
<path d="M105.088 309.995L101.995 313.093L105.093 316.186L108.186 313.088L105.088 309.995Z" fill="#383838" stroke="#383838" stroke-miterlimit="10" stroke-linecap="round"/>
<path d="M134 247H126V255H134V247Z" fill="#383838" stroke="#383838" stroke-miterlimit="10" stroke-linecap="round"/>
<path d="M552.485 424.243L548.243 420L544 424.243L548.243 428.485L552.485 424.243Z" fill="#383838" stroke="#383838" stroke-miterlimit="10" stroke-linecap="round"/>
<path d="M1076.08 395.827L1077.3 407.748L1089.22 406.53L1088 394.61L1076.08 395.827Z" fill="#383838" stroke="#383838" stroke-miterlimit="10" stroke-linecap="round"/>
<path d="M1044.18 364.163L1045.39 376.083L1057.31 374.866L1056.1 362.945L1044.18 364.163Z" fill="#383838" stroke="#383838" stroke-miterlimit="10" stroke-linecap="round"/>
<path d="M646.43 567.664C649.561 567.664 652.099 565.125 652.099 561.994C652.099 558.863 649.561 556.324 646.43 556.324C643.298 556.324 640.76 558.863 640.76 561.994C640.76 565.125 643.298 567.664 646.43 567.664Z" fill="#383838" stroke="#383838" stroke-miterlimit="10" stroke-linecap="round"/>
<path d="M649.5 743C654.194 743 658 739.194 658 734.5C658 729.806 654.194 726 649.5 726C644.806 726 641 729.806 641 734.5C641 739.194 644.806 743 649.5 743Z" fill="#383838" stroke="#383838" stroke-miterlimit="10" stroke-linecap="round"/>
<path d="M380.8 367.868C381.592 367.868 382.234 367.226 382.234 366.434C382.234 365.642 381.592 365 380.8 365C380.008 365 379.366 365.642 379.366 366.434C379.366 367.226 380.008 367.868 380.8 367.868Z" fill="#383838" stroke="#383838" stroke-miterlimit="10" stroke-linecap="round"/>
<path d="M40.434 37.8681C41.226 37.8681 41.8681 37.2261 41.8681 36.4341C41.8681 35.6421 41.226 35 40.434 35C39.642 35 39 35.6421 39 36.4341C39 37.2261 39.642 37.8681 40.434 37.8681Z" fill="#383838" stroke="#383838" stroke-miterlimit="10" stroke-linecap="round"/>
<path d="M205.434 241.868C206.226 241.868 206.868 241.226 206.868 240.434C206.868 239.642 206.226 239 205.434 239C204.642 239 204 239.642 204 240.434C204 241.226 204.642 241.868 205.434 241.868Z" fill="#383838" stroke="#383838" stroke-miterlimit="10" stroke-linecap="round"/>
<path d="M1186 751.611V659.5" stroke="#383838" stroke-miterlimit="10" stroke-linecap="round"/>
<path d="M1263.5 685.231L1245.31 703.421" stroke="#383838" stroke-miterlimit="10" stroke-linecap="round"/>
<path d="M1245.31 703.421V747.649" stroke="#383838" stroke-miterlimit="10" stroke-linecap="round"/>
<path d="M1138 752.054V699" stroke="#383838" stroke-miterlimit="10" stroke-linecap="round"/>
<path d="M1150 753L1150 712" stroke="#383838" stroke-miterlimit="10" stroke-linecap="round"/>
<path d="M1126 752.249V721" stroke="#383838" stroke-miterlimit="10" stroke-linecap="round"/>
<path d="M1253.75 706.074V751.626" stroke="#383838" stroke-miterlimit="10" stroke-linecap="round"/>
<path d="M1198 753.285V694.363" stroke="#383838" stroke-miterlimit="10" stroke-linecap="round"/>
<path d="M1253.75 706.074L1264 695.823" stroke="#383838" stroke-miterlimit="10" stroke-linecap="round"/>
<path d="M1174 753.287V648" stroke="#383838" stroke-miterlimit="10" stroke-linecap="round"/>
<path d="M1138 698.871L1145.92 690.956" stroke="#383838" stroke-miterlimit="10" stroke-linecap="round"/>
<path d="M1198 694.331L1212.33 680" stroke="#383838" stroke-miterlimit="10" stroke-linecap="round"/>
<path d="M1186 659.359L1216.36 629" stroke="#383838" stroke-miterlimit="10" stroke-linecap="round"/>
<path d="M1174 647.898L1190.9 631" stroke="#383838" stroke-miterlimit="10" stroke-linecap="round"/>
<path d="M1218.5 742.014C1222.64 742.014 1226 738.656 1226 734.514C1226 730.372 1222.64 727.014 1218.5 727.014C1214.36 727.014 1211 730.372 1211 734.514C1211 738.656 1214.36 742.014 1218.5 742.014Z" fill="#383838" stroke="#383838" stroke-miterlimit="10" stroke-linecap="round"/>
<path d="M1148.5 691.216C1150.5 691.216 1152.11 689.6 1152.11 687.608C1152.11 685.615 1150.5 684 1148.5 684C1146.51 684 1144.9 685.615 1144.9 687.608C1144.9 689.6 1146.51 691.216 1148.5 691.216Z" fill="#383838" stroke="#383838" stroke-miterlimit="10" stroke-linecap="round"/>
<path d="M1393.99 341C1391.2 341 1388.94 343.261 1388.94 346.051C1388.94 348.84 1391.2 351.102 1393.99 351.102C1396.78 351.102 1399.04 348.84 1399.04 346.051C1399.04 343.261 1396.78 341 1393.99 341Z" fill="#383838" stroke="#383838" stroke-miterlimit="10" stroke-linecap="round"/>
<path d="M1352.57 615.229C1354.02 615.229 1355.2 614.049 1355.2 612.594C1355.2 611.139 1354.02 609.959 1352.57 609.959C1351.11 609.959 1349.93 611.139 1349.93 612.594C1349.93 614.049 1351.11 615.229 1352.57 615.229Z" fill="#383838" stroke="#383838" stroke-miterlimit="10" stroke-linecap="round"/>
<path d="M1362 642C1363.66 642 1365 640.657 1365 639C1365 637.343 1363.66 636 1362 636C1360.34 636 1359 637.343 1359 639C1359 640.657 1360.34 642 1362 642Z" fill="#383838" stroke="#383838" stroke-miterlimit="10" stroke-linecap="round"/>
<path d="M1162.07 680.969C1163.76 680.969 1165.13 679.596 1165.13 677.902C1165.13 676.209 1163.76 674.836 1162.07 674.836C1160.37 674.836 1159 676.209 1159 677.902C1159 679.596 1160.37 680.969 1162.07 680.969Z" fill="#383838" stroke="#383838" stroke-miterlimit="10" stroke-linecap="round"/>
<path d="M1228.7 660.954C1230.29 660.954 1231.59 659.662 1231.59 658.068C1231.59 656.474 1230.29 655.182 1228.7 655.182C1227.11 655.182 1225.81 656.474 1225.81 658.068C1225.81 659.662 1227.11 660.954 1228.7 660.954Z" fill="#383838" stroke="#383838" stroke-miterlimit="10" stroke-linecap="round"/>
<path d="M1385.12 204.84L1389.63 200.328L1393.84 204.54L1389.33 209.052L1385.12 204.84Z" fill="#383838" stroke="#383838"/>
<path d="M1396.88 72.0908H1403.26V78.0472H1396.88V72.0908Z" fill="#383838" stroke="#383838"/>
<path d="M1327.5 251.5V244.5H1334.5V251.5H1327.5Z" fill="#383838" stroke="#383838"/>
<path d="M1419.72 430.396L1424.04 425.705L1428.42 429.742L1424.1 434.433L1419.72 430.396Z" fill="#383838" stroke="#383838"/>
<path d="M1322.71 387.398L1327.03 382.707L1331.41 386.744L1327.09 391.435L1322.71 387.398Z" fill="#383838" stroke="#383838"/>
<path d="M1357.71 359.398L1362.03 354.707L1366.41 358.744L1362.09 363.435L1357.71 359.398Z" fill="#383838" stroke="#383838"/>
<path d="M856.5 735.5V722.5H869.5V735.5H856.5Z" fill="#383838" stroke="#383838"/>
<path d="M564.5 659.5V651.5H572.5V659.5H564.5Z" fill="#383838" stroke="#383838"/>
<path d="M734.843 717.5L740.5 711.843L746.157 717.5L740.5 723.157L734.843 717.5Z" fill="#383838" stroke="#383838"/>
<path d="M1416.39 376.576L1416.39 371.398L1411.51 371.398L1411.51 376.576L1416.39 376.576Z" fill="#383838" stroke="#383838" stroke-miterlimit="10"/>
<path d="M1271.37 617.296L1268 613.723L1271.37 610.15L1274.73 613.723L1271.37 617.296Z" fill="#383838" stroke="#383838"/>
<path d="M1150.06 713.293L1146.76 710L1150.06 706.707L1153.35 710L1150.06 713.293Z" fill="#383838" stroke="#383838"/>
<path d="M1246.32 572.664V624.725" stroke="#383838" stroke-miterlimit="10" stroke-linecap="round"/>
<path d="M1246.32 624.725L1218.9 652.149" stroke="#383838" stroke-miterlimit="10" stroke-linecap="round"/>
<path d="M1218.92 652.148V727.071" stroke="#383838" stroke-miterlimit="10" stroke-linecap="round"/>
<path d="M1231.06 655.71L1259.24 627.529" stroke="#383838" stroke-miterlimit="10" stroke-linecap="round"/>
<path d="M1259.24 627.529H1271.37" stroke="#383838" stroke-miterlimit="10" stroke-linecap="round"/>
<path d="M1271.37 627.229V617.638" stroke="#383838" stroke-miterlimit="10" stroke-linecap="round"/>
<path d="M1281.21 656.826H1255.48" stroke="#383838" stroke-miterlimit="10" stroke-linecap="round"/>
<path d="M1162 681V742.837" stroke="#383838" stroke-miterlimit="10" stroke-linecap="round"/>
<path d="M1232.61 739.65V680.005" stroke="#383838" stroke-miterlimit="10" stroke-linecap="round"/>
<path d="M1232.61 680.006L1238.25 674.368" stroke="#383838" stroke-miterlimit="10" stroke-linecap="round"/>
<path d="M1238.25 674.368H1281.24" stroke="#383838" stroke-miterlimit="10" stroke-linecap="round"/>
<path d="M1393.99 351.8L1393.99 532.946" stroke="#383838" stroke-miterlimit="10" stroke-linecap="round"/>
<path d="M1362 410L1362 497" stroke="#383838" stroke-miterlimit="10" stroke-linecap="round"/>
<path d="M1424 434L1424 478" stroke="#383838" stroke-miterlimit="10" stroke-linecap="round"/>
<path d="M1375 494L1375 546.5" stroke="#383838" stroke-miterlimit="10" stroke-linecap="round"/>
<path d="M1404 402.435L1404 507" stroke="#383838" stroke-miterlimit="10" stroke-linecap="round"/>
<path d="M1404 402.435L1413.95 392.483" stroke="#383838" stroke-miterlimit="10" stroke-linecap="round"/>
<path d="M1413.95 392.482L1413.95 376.576" stroke="#383838" stroke-miterlimit="10" stroke-linecap="round"/>
<path d="M1383.66 361.216L1383.66 462.224" stroke="#383838" stroke-miterlimit="10" stroke-linecap="round"/>
<path d="M1414 275L1414 355" stroke="#383838" stroke-miterlimit="10" stroke-linecap="round"/>
<path d="M1383.66 462.224L1374.94 470.945" stroke="#383838" stroke-miterlimit="10" stroke-linecap="round"/>
<path d="M191.928 758.688V579.48" stroke="#383838" stroke-miterlimit="10" stroke-linecap="round"/>
<path d="M191.928 579.48L178.216 565.768" stroke="#383838" stroke-miterlimit="10" stroke-linecap="round"/>
<path d="M214.365 710.777V563.007" stroke="#383838" stroke-miterlimit="10" stroke-linecap="round"/>
<path d="M204.024 579.462L172.272 547.709" stroke="#383838" stroke-miterlimit="10" stroke-linecap="round"/>
<path d="M209.753 543.753L178 512" stroke="#383838" stroke-miterlimit="10" stroke-linecap="round"/>
<path d="M235 536L203 504" stroke="#383838" stroke-miterlimit="10" stroke-linecap="round"/>
<path d="M137 398.354L169.024 366.33" stroke="#383838" stroke-miterlimit="10" stroke-linecap="round"/>
<path d="M204.024 579.462V758.688" stroke="#383838" stroke-miterlimit="10" stroke-linecap="round"/>
<path d="M137 398.5L137 477" stroke="#383838" stroke-miterlimit="10" stroke-linecap="round"/>
<path d="M284.462 764L284.462 702" stroke="#383838" stroke-miterlimit="10" stroke-linecap="round"/>
<path d="M284.077 701.552L280.154 697.629" stroke="#383838" stroke-miterlimit="10" stroke-linecap="round"/>
<path d="M314.462 765.991V740.502" stroke="#383838" stroke-miterlimit="10" stroke-linecap="round"/>
<path d="M303.462 759L303.462 728" stroke="#383838" stroke-miterlimit="10" stroke-linecap="round"/>
<path d="M274.699 710L274.699 764" stroke="#383838" stroke-miterlimit="10" stroke-linecap="round"/>
<path d="M214.365 710.777L218.65 715.062" stroke="#383838" stroke-miterlimit="10" stroke-linecap="round"/>
<path d="M303.238 727.746C306.825 727.746 309.732 724.83 309.732 721.233C309.732 717.636 306.825 714.721 303.238 714.721C299.652 714.721 296.745 717.636 296.745 721.233C296.745 724.83 299.652 727.746 303.238 727.746Z" fill="#383838" stroke="#383838" stroke-miterlimit="10" stroke-linecap="round"/>
<path d="M223.154 651.02C224.848 651.02 226.221 649.647 226.221 647.953C226.221 646.26 224.848 644.887 223.154 644.887C221.46 644.887 220.087 646.26 220.087 647.953C220.087 649.647 221.46 651.02 223.154 651.02Z" fill="#383838" stroke="#383838" stroke-miterlimit="10" stroke-linecap="round"/>
<path d="M277.765 698.32C279.459 698.32 280.832 696.941 280.832 695.24C280.832 693.539 279.459 692.161 277.765 692.161C276.072 692.161 274.699 693.539 274.699 695.24C274.699 696.941 276.072 698.32 277.765 698.32Z" fill="#383838" stroke="#383838" stroke-miterlimit="10" stroke-linecap="round"/>
<path d="M239.699 764L239.699 740.128" stroke="#383838" stroke-miterlimit="10" stroke-linecap="round"/>
<path d="M239.699 740L257.826 721.869" stroke="#383838" stroke-miterlimit="10" stroke-linecap="round"/>
<path d="M229.699 761L229.699 655" stroke="#383838" stroke-miterlimit="10" stroke-linecap="round"/>
<path d="M229.616 654.562L225.563 650.509" stroke="#383838" stroke-miterlimit="10" stroke-linecap="round"/>
<path d="M257.826 682.264L254.458 678.691L257.826 675.118L261.193 678.691L257.826 682.264Z" fill="#383838" stroke="#383838"/>
<path d="M257.826 721.869V679.878" stroke="#383838" stroke-miterlimit="10" stroke-linecap="round"/>
<path d="M1281.24 656.467L1291.08 646.629" stroke="#383838" stroke-miterlimit="10" stroke-linecap="round"/>
<path d="M1281.24 674.355L1300.92 654.679" stroke="#383838" stroke-miterlimit="10" stroke-linecap="round"/>
<path d="M1300.92 654.679V617.115" stroke="#383838" stroke-miterlimit="10" stroke-linecap="round"/>
<path d="M1264 695.82H1317.91" stroke="#383838" stroke-miterlimit="10" stroke-linecap="round"/>
<path d="M1317.91 695.82L1329.54 684.193" stroke="#383838" stroke-miterlimit="10" stroke-linecap="round"/>
<path d="M1352 717.725L1376.5 693.226" stroke="#383838" stroke-miterlimit="10" stroke-linecap="round"/>
<path d="M1376.5 693.137V635.896" stroke="#383838" stroke-miterlimit="10" stroke-linecap="round"/>
<path d="M1362 675L1362 641" stroke="#383838" stroke-miterlimit="10" stroke-linecap="round"/>
<path d="M1386.78 707.447L1415.85 736.514" stroke="#383838" stroke-miterlimit="10" stroke-linecap="round"/>
<path d="M1386.78 707.447V682.404" stroke="#383838" stroke-miterlimit="10" stroke-linecap="round"/>
<path d="M1386.78 682.404L1397.51 671.671" stroke="#383838" stroke-miterlimit="10" stroke-linecap="round"/>
<path d="M1397.51 671.672V607.277" stroke="#383838" stroke-miterlimit="10" stroke-linecap="round"/>
<path d="M1439.76 664.516L1432.6 657.361" stroke="#383838" stroke-miterlimit="10" stroke-linecap="round"/>
<path d="M1432.6 657.362V574.185" stroke="#383838" stroke-miterlimit="10" stroke-linecap="round"/>
<path d="M1432.6 574.184L1441.99 564.793" stroke="#383838" stroke-miterlimit="10" stroke-linecap="round"/>
<path d="M1424.34 660.939V504.423" stroke="#383838" stroke-miterlimit="10" stroke-linecap="round"/>
<path d="M1424.34 660.939L1438.65 675.249" stroke="#383838" stroke-miterlimit="10" stroke-linecap="round"/>
<path d="M1263.35 685.087H1320.59" stroke="#383838" stroke-miterlimit="10" stroke-linecap="round"/>
<path d="M1320.59 685.087L1337.59 668.094" stroke="#383838" stroke-miterlimit="10" stroke-linecap="round"/>
<path d="M1337.59 668.094V627.847" stroke="#383838" stroke-miterlimit="10" stroke-linecap="round"/>
<path d="M1337.59 627.847L1350.56 614.879" stroke="#383838" stroke-miterlimit="10" stroke-linecap="round"/>
<path d="M1291.08 646.629V633.213" stroke="#383838" stroke-miterlimit="10" stroke-linecap="round"/>
<path d="M1404 656.467V676.65" stroke="#383838" stroke-miterlimit="10" stroke-linecap="round"/>
<path d="M1404 676.809L1394 687" stroke="#383838" stroke-miterlimit="10" stroke-linecap="round"/>
<path d="M1394 687V703" stroke="#383838" stroke-miterlimit="10" stroke-linecap="round"/>
<path d="M1394 703L1409.58 718.626" stroke="#383838" stroke-miterlimit="10" stroke-linecap="round"/>
<path d="M1433.86 679.721L1416 662" stroke="#383838" stroke-miterlimit="10" stroke-linecap="round"/>
<path d="M1415.98 661.834V592.072" stroke="#383838" stroke-miterlimit="10" stroke-linecap="round"/>
<path d="M1415.98 592.072L1403.9 579.998" stroke="#383838" stroke-miterlimit="10" stroke-linecap="round"/>
<path d="M1430.6 719.074L1414.5 702.975" stroke="#383838" stroke-miterlimit="10" stroke-linecap="round"/>
<path d="M1414.5 702.975V684.193" stroke="#383838" stroke-miterlimit="10" stroke-linecap="round"/>
<path d="M1265.2 719L1276.2 708" stroke="#383838" stroke-miterlimit="10" stroke-linecap="round"/>
<path d="M1276.31 707.888H1335.34" stroke="#383838" stroke-miterlimit="10" stroke-linecap="round"/>
<path d="M1335.34 707.888L1344.28 698.944" stroke="#383838" stroke-miterlimit="10" stroke-linecap="round"/>
<path d="M1338.48 726.919V735.863" stroke="#383838" stroke-miterlimit="10" stroke-linecap="round"/>
<path d="M1336.03 726.024L1338.48 723.569L1340.94 726.024L1338.48 728.479L1336.03 726.024Z" fill="#383838" stroke="#383838"/>
<path d="M1241.94 564.399H1250.78V573.238H1241.94V564.399Z" fill="#383838" stroke="#383838"/>
<path d="M1394.88 602.858H1400.14V608.119H1394.88V602.858Z" fill="#383838" stroke="#383838"/>
<path d="M1402.56 580.445C1403.55 580.445 1404.35 579.644 1404.35 578.656C1404.35 577.669 1403.55 576.868 1402.56 576.868C1401.57 576.868 1400.77 577.669 1400.77 578.656C1400.77 579.644 1401.57 580.445 1402.56 580.445Z" fill="#383838" stroke="#383838" stroke-miterlimit="10" stroke-linecap="round"/>
<path d="M1300.92 617.115C1301.91 617.115 1302.71 616.314 1302.71 615.326C1302.71 614.338 1301.91 613.537 1300.92 613.537C1299.93 613.537 1299.13 614.338 1299.13 615.326C1299.13 616.314 1299.93 617.115 1300.92 617.115Z" fill="#383838" stroke="#383838" stroke-miterlimit="10" stroke-linecap="round"/>
<path d="M1414.5 684.193C1416.48 684.193 1418.08 682.591 1418.08 680.616C1418.08 678.64 1416.48 677.038 1414.5 677.038C1412.53 677.038 1410.93 678.64 1410.93 680.616C1410.93 682.591 1412.53 684.193 1414.5 684.193Z" fill="#383838" stroke="#383838" stroke-miterlimit="10" stroke-linecap="round"/>
<path d="M1432.84 699.844C1434.07 699.844 1435.07 698.843 1435.07 697.609C1435.07 696.374 1434.07 695.373 1432.84 695.373C1431.6 695.373 1430.6 696.374 1430.6 697.609C1430.6 698.843 1431.6 699.844 1432.84 699.844Z" fill="#383838" stroke="#383838" stroke-miterlimit="10" stroke-linecap="round"/>
<path d="M1319.7 584.917H1313.44V591.178H1319.7V584.917Z" fill="#383838" stroke="#383838" stroke-miterlimit="10" stroke-linecap="round"/>
<path d="M1257.62 548.241L1255.24 547L1254 549.379L1256.38 550.62L1257.62 548.241Z" fill="#383838" stroke="#383838" stroke-miterlimit="10" stroke-linecap="round"/>
<path d="M1366.31 550.311L1362 546L1357.69 550.311L1362 554.622L1366.31 550.311Z" fill="#383838" stroke="#383838" stroke-miterlimit="10" stroke-linecap="round"/>
<path d="M179.375 758.689V654.941" stroke="#383838" stroke-miterlimit="10" stroke-linecap="round"/>
<path d="M179.375 654.941L147.178 622.744" stroke="#383838" stroke-miterlimit="10" stroke-linecap="round"/>
<path d="M147.178 622.744V588.757" stroke="#383838" stroke-miterlimit="10" stroke-linecap="round"/>
<path d="M87.3108 591.44L109.67 613.799" stroke="#383838" stroke-miterlimit="10" stroke-linecap="round"/>
<path d="M109.67 613.799V758.688" stroke="#383838" stroke-miterlimit="10" stroke-linecap="round"/>
<path d="M58.6345 764.055V695.188" stroke="#383838" stroke-miterlimit="10" stroke-linecap="round"/>
<path d="M58.6345 695.188L0.5 637.054" stroke="#383838" stroke-miterlimit="10" stroke-linecap="round"/>
<path d="M53.2682 756.006V713.076" stroke="#383838" stroke-miterlimit="10" stroke-linecap="round"/>
<path d="M53.2683 713.076L4.97189 664.779" stroke="#383838" stroke-miterlimit="10" stroke-linecap="round"/>
<path d="M7.655 682.667L21.965 696.977" stroke="#383838" stroke-miterlimit="10" stroke-linecap="round"/>
<path d="M21.9651 696.977V756.005" stroke="#383838" stroke-miterlimit="10" stroke-linecap="round"/>
<path d="M37.1695 739.012V758.689" stroke="#383838" stroke-miterlimit="10" stroke-linecap="round"/>
<path d="M95.304 756.006V635.265" stroke="#383838" stroke-miterlimit="10"/>
<path d="M95.304 635.264L65.7895 605.75" stroke="#383838" stroke-miterlimit="10"/>
<path d="M65.7895 605.75V542.25" stroke="#383838" stroke-miterlimit="10"/>
<path d="M101 582.501V519" stroke="#383838" stroke-miterlimit="10" stroke-linecap="round"/>
<path d="M124 495.501V432" stroke="#383838" stroke-miterlimit="10" stroke-linecap="round"/>
<path d="M151 449V413" stroke="#383838" stroke-miterlimit="10" stroke-linecap="round"/>
<path d="M151 503V467" stroke="#383838" stroke-miterlimit="10" stroke-linecap="round"/>
<path d="M151 568V532" stroke="#383838" stroke-miterlimit="10" stroke-linecap="round"/>
<path d="M128 593V526" stroke="#383838" stroke-miterlimit="10" stroke-linecap="round"/>
<path d="M66 495.501V432" stroke="#383838" stroke-miterlimit="10" stroke-linecap="round"/>
<path d="M87 500V422" stroke="#383838" stroke-miterlimit="10" stroke-linecap="round"/>
<path d="M105 444V366" stroke="#383838" stroke-miterlimit="10" stroke-linecap="round"/>
<path d="M146 356L146 288" stroke="#383838" stroke-miterlimit="10" stroke-linecap="round"/>
<path d="M105 347L105 316" stroke="#383838" stroke-miterlimit="10" stroke-linecap="round"/>
<path d="M105 292L105 258" stroke="#383838" stroke-miterlimit="10" stroke-linecap="round"/>
<path d="M20 303L20 247.5" stroke="#383838" stroke-miterlimit="10" stroke-linecap="round"/>
<path d="M130 322L130 255" stroke="#383838" stroke-miterlimit="10" stroke-linecap="round"/>
<path d="M43 548L43 496" stroke="#383838" stroke-miterlimit="10" stroke-linecap="round"/>
<path d="M22 524V452" stroke="#383838" stroke-miterlimit="10" stroke-linecap="round"/>
<path d="M169.009 758.688V666.567" stroke="#383838" stroke-miterlimit="10"/>
<path d="M169.009 666.568L134.128 631.687" stroke="#383838" stroke-miterlimit="10"/>
<path d="M134.128 631.687V621.849" stroke="#383838" stroke-miterlimit="10" stroke-linecap="round"/>
<path d="M147.178 764.055V726.491" stroke="#383838" stroke-miterlimit="10" stroke-linecap="round"/>
<path d="M147.178 726.491L131.973 711.287" stroke="#383838" stroke-miterlimit="10" stroke-linecap="round"/>
<path d="M131.973 711.287V679.984" stroke="#383838" stroke-miterlimit="10" stroke-linecap="round"/>
<path d="M123.03 734.541V761.372" stroke="#383838" stroke-miterlimit="10" stroke-linecap="round"/>
<path d="M71.603 756.453V675.064" stroke="#383838" stroke-miterlimit="10" stroke-linecap="round"/>
<path d="M71.603 675.064L42.9829 646.444" stroke="#383838" stroke-miterlimit="10" stroke-linecap="round"/>
<path d="M42.9829 646.444V612.458" stroke="#383838" stroke-miterlimit="10" stroke-linecap="round"/>
<path d="M42.5357 612.01C44.5115 612.01 46.1132 610.409 46.1132 608.433C46.1132 606.457 44.5115 604.855 42.5357 604.855C40.5599 604.855 38.9582 606.457 38.9582 608.433C38.9582 610.409 40.5599 612.01 42.5357 612.01Z" fill="#383838" stroke="#383838" stroke-miterlimit="10" stroke-linecap="round"/>
<path d="M37.1694 739.012C38.0339 739.012 38.7346 738.311 38.7346 737.447C38.7346 736.583 38.0339 735.882 37.1694 735.882C36.305 735.882 35.6043 736.583 35.6043 737.447C35.6043 738.311 36.305 739.012 37.1694 739.012Z" fill="#383838" stroke="#383838" stroke-miterlimit="10" stroke-linecap="round"/>
<path d="M147.178 588.757C148.66 588.757 149.861 587.556 149.861 586.074C149.861 584.592 148.66 583.391 147.178 583.391C145.696 583.391 144.495 584.592 144.495 586.074C144.495 587.556 145.696 588.757 147.178 588.757Z" fill="#383838" stroke="#383838" stroke-miterlimit="10" stroke-linecap="round"/>
<path d="M124 432C126.209 432 128 430.209 128 428C128 425.791 126.209 424 124 424C121.791 424 120 425.791 120 428C120 430.209 121.791 432 124 432Z" fill="#383838" stroke="#383838" stroke-miterlimit="10" stroke-linecap="round"/>
<path d="M151 413C153.209 413 155 411.209 155 409C155 406.791 153.209 405 151 405C148.791 405 147 406.791 147 409C147 411.209 148.791 413 151 413Z" fill="#383838" stroke="#383838" stroke-miterlimit="10" stroke-linecap="round"/>
<path d="M22 387C24.2091 387 26 385.209 26 383C26 380.791 24.2091 379 22 379C19.7909 379 18 380.791 18 383C18 385.209 19.7909 387 22 387Z" fill="#383838" stroke="#383838" stroke-miterlimit="10" stroke-linecap="round"/>
<path d="M20 189C22.2091 189 24 187.209 24 185C24 182.791 22.2091 181 20 181C17.7909 181 16 182.791 16 185C16 187.209 17.7909 189 20 189Z" fill="#383838" stroke="#383838" stroke-miterlimit="10" stroke-linecap="round"/>
<path d="M66 219C68.7614 219 71 216.761 71 214C71 211.239 68.7614 209 66 209C63.2386 209 61 211.239 61 214C61 216.761 63.2386 219 66 219Z" fill="#383838" stroke="#383838" stroke-miterlimit="10" stroke-linecap="round"/>
<path d="M87 341C88.6569 341 90 339.657 90 338C90 336.343 88.6569 335 87 335C85.3431 335 84 336.343 84 338C84 339.657 85.3431 341 87 341Z" fill="#383838" stroke="#383838" stroke-miterlimit="10" stroke-linecap="round"/>
<path d="M64.5008 540.514H67.0783V543.091H64.5008V540.514Z" fill="#383838" stroke="#383838"/>
<path d="M149.5 529.5H152.5V532.5H149.5V529.5Z" fill="#383838" stroke="#383838"/>
<path d="M170.5 545.88H173.972V549.352H170.5V545.88Z" fill="#383838" stroke="#383838"/>
<path d="M168.5 363.5H171.972V366.972H168.5V363.5Z" fill="#383838" stroke="#383838"/>
<path d="M101 519L124 496" stroke="#383838" stroke-linecap="round"/>
<path d="M128 526L151 503" stroke="#383838" stroke-linecap="round"/>
<path d="M66 432L42.5 408.5" stroke="#383838" stroke-linecap="round"/>
<path d="M42.5 408.5V349.5" stroke="#383838" stroke-linecap="round"/>
<path d="M66 387V327.5" stroke="#383838" stroke-linecap="round"/>
<path d="M54 388.5V310" stroke="#383838" stroke-linecap="round"/>
<path d="M66 293L66 219" stroke="#383838" stroke-linecap="round"/>
<path d="M87 400V341" stroke="#383838" stroke-linecap="round"/>
<path d="M22 422L22 387" stroke="#383838" stroke-linecap="round"/>
<path d="M22 524L-5 551" stroke="#383838" stroke-linecap="round"/>
<path d="M22 566L-5 593" stroke="#383838" stroke-linecap="round"/>
<path d="M87 500L65.5 521.5" stroke="#383838" stroke-linecap="round"/>
<path d="M105 366L130.5 340.5" stroke="#383838" stroke-linecap="round"/>
<path d="M120 381.5L146 355.5" stroke="#383838" stroke-linecap="round"/>
<path d="M20 226.5V189" stroke="#383838" stroke-linecap="round"/>
<path d="M66 327.5L87.5 306" stroke="#383838" stroke-linecap="round"/>
<path d="M36 231.5L20 247.5" stroke="#383838" stroke-linecap="round"/>
<path d="M36 319L20 303" stroke="#383838" stroke-linecap="round"/>
<path d="M53.9998 310L31 287" stroke="#383838" stroke-linecap="round"/>
<path d="M31 255L53.9998 232" stroke="#383838" stroke-linecap="round"/>
<path d="M105 258L84 237" stroke="#383838" stroke-linecap="round"/>
<path d="M178 512V444.5" stroke="#383838" stroke-linecap="round"/>
<path d="M235 577L235 536" stroke="#383838" stroke-linecap="round"/>
<path d="M1362 497L1327 532" stroke="#383838" stroke-linecap="round"/>
<path d="M1362 519L1341 540" stroke="#383838" stroke-linecap="round"/>
<path d="M1327 532V575" stroke="#383838" stroke-linecap="round"/>
<path d="M1313 515L1313 584" stroke="#383838" stroke-linecap="round"/>
<path d="M1375 546.5L1391 562.5" stroke="#383838" stroke-linecap="round"/>
<path d="M1384 266L1362 244" stroke="#383838" stroke-linecap="round"/>
<path d="M1399 236L1411 224" stroke="#383838" stroke-linecap="round"/>
<path d="M1430 229L1452 251" stroke="#383838" stroke-linecap="round"/>
<path d="M1452 146L1430 168" stroke="#383838" stroke-linecap="round"/>
</svg>
