<svg width="1440" height="465" viewBox="0 0 1440 465" fill="none" xmlns="http://www.w3.org/2000/svg">
<path d="M1361 88.4092L1361 62.4092" stroke="#072AC8" stroke-linecap="round"/>
<path d="M1340 239.409V289.409" stroke="#072AC8" stroke-linecap="round"/>
<path d="M1361 254.409L1361 285.409" stroke="#072AC8" stroke-linecap="round"/>
<path d="M103 174.409L103 139.409" stroke="#072AC8" stroke-linecap="round"/>
<path d="M1079.68 206.76C1083.68 206.76 1086.92 203.516 1086.92 199.513C1086.92 195.51 1083.68 192.266 1079.68 192.266C1075.67 192.266 1072.43 195.51 1072.43 199.513C1072.43 203.516 1075.67 206.76 1079.68 206.76Z" stroke="#2A1DBD" stroke-miterlimit="10" stroke-linecap="round"/>
<path d="M1103.93 290.821C1105.43 290.821 1106.64 289.609 1106.64 288.115C1106.64 286.621 1105.43 285.409 1103.93 285.409C1102.44 285.409 1101.23 286.621 1101.23 288.115C1101.23 289.609 1102.44 290.821 1103.93 290.821Z" fill="#072AC8" stroke="#072AC8" stroke-miterlimit="10" stroke-linecap="round"/>
<path d="M1028.71 396.821C1030.2 396.821 1031.41 395.609 1031.41 394.115C1031.41 392.621 1030.2 391.409 1028.71 391.409C1027.21 391.409 1026 392.621 1026 394.115C1026 395.609 1027.21 396.821 1028.71 396.821Z" fill="#072AC8" stroke="#072AC8" stroke-miterlimit="10" stroke-linecap="round"/>
<path d="M1186.6 234.191C1187.48 234.191 1188.19 233.476 1188.19 232.595C1188.19 231.714 1187.48 231 1186.6 231C1185.71 231 1185 231.714 1185 232.595C1185 233.476 1185.71 234.191 1186.6 234.191Z" stroke="#2A1DBD" stroke-miterlimit="10" stroke-linecap="round"/>
<path d="M381.99 215.878C383.883 215.878 385.417 214.344 385.417 212.451C385.417 210.558 383.883 209.023 381.99 209.023C380.097 209.023 378.563 210.558 378.563 212.451C378.563 214.344 380.097 215.878 381.99 215.878Z" fill="#072AC8" stroke="#072AC8" stroke-miterlimit="10" stroke-linecap="round"/>
<path d="M107.427 88.8547C109.32 88.8547 110.855 87.3202 110.855 85.4273C110.855 83.5345 109.32 82 107.427 82C105.534 82 104 83.5345 104 85.4273C104 87.3202 105.534 88.8547 107.427 88.8547Z" fill="#072AC8" stroke="#072AC8" stroke-miterlimit="10" stroke-linecap="round"/>
<path d="M103 139.409C105.209 139.409 107 137.618 107 135.409C107 133.2 105.209 131.409 103 131.409C100.791 131.409 99 133.2 99 135.409C99 137.618 100.791 139.409 103 139.409Z" fill="#072AC8" stroke="#072AC8" stroke-miterlimit="10" stroke-linecap="round"/>
<path d="M519.427 422.264C521.32 422.264 522.855 420.729 522.855 418.837C522.855 416.944 521.32 415.409 519.427 415.409C517.534 415.409 516 416.944 516 418.837C516 420.729 517.534 422.264 519.427 422.264Z" fill="#072AC8" stroke="#072AC8" stroke-miterlimit="10" stroke-linecap="round"/>
<path d="M979.427 254.264C981.32 254.264 982.855 252.729 982.855 250.837C982.855 248.944 981.32 247.409 979.427 247.409C977.534 247.409 976 248.944 976 250.837C976 252.729 977.534 254.264 979.427 254.264Z" fill="#072AC8" stroke="#072AC8" stroke-miterlimit="10" stroke-linecap="round"/>
<path d="M1124.85 420.118C1128.64 420.118 1131.71 417.049 1131.71 413.264C1131.71 409.478 1128.64 406.409 1124.85 406.409C1121.07 406.409 1118 409.478 1118 413.264C1118 417.049 1121.07 420.118 1124.85 420.118Z" fill="#072AC8" stroke="#072AC8" stroke-miterlimit="10" stroke-linecap="round"/>
<path d="M1303.43 177.264C1305.32 177.264 1306.85 175.729 1306.85 173.837C1306.85 171.944 1305.32 170.409 1303.43 170.409C1301.53 170.409 1300 171.944 1300 173.837C1300 175.729 1301.53 177.264 1303.43 177.264Z" fill="#072AC8" stroke="#072AC8" stroke-miterlimit="10" stroke-linecap="round"/>
<path d="M1317 92.4092C1318.1 92.4092 1319 91.5138 1319 90.4092C1319 89.3046 1318.1 88.4092 1317 88.4092C1315.9 88.4092 1315 89.3046 1315 90.4092C1315 91.5138 1315.9 92.4092 1317 92.4092Z" fill="#072AC8" stroke="#072AC8" stroke-miterlimit="10" stroke-linecap="round"/>
<path d="M1382.66 169.678L1374.47 177.868" stroke="#072AC8" stroke-miterlimit="10" stroke-linecap="round"/>
<path d="M254.931 301.033L250.645 304.855L254.468 309.141L258.753 305.318L254.931 301.033Z" fill="#072AC8" stroke="#072AC8" stroke-miterlimit="10" stroke-linecap="round"/>
<path d="M42.671 184.074L36.3657 189.698L41.99 196.003L48.2952 190.379L42.671 184.074Z" fill="#072AC8" stroke="#072AC8" stroke-miterlimit="10" stroke-linecap="round"/>
<path d="M551.485 123.652L547.243 119.409L543 123.652L547.243 127.894L551.485 123.652Z" fill="#072AC8" stroke="#072AC8" stroke-miterlimit="10" stroke-linecap="round"/>
<path d="M1075.08 95.2365L1076.3 107.157L1088.22 105.939L1087 94.0191L1075.08 95.2365Z" stroke="#2A1DBD" stroke-miterlimit="10" stroke-linecap="round"/>
<path d="M1043.18 63.5719L1044.39 75.4922L1056.31 74.2748L1055.1 62.3546L1043.18 63.5719Z" stroke="#2A1DBD" stroke-miterlimit="10" stroke-linecap="round"/>
<path d="M645.43 267.073C648.561 267.073 651.099 264.534 651.099 261.403C651.099 258.272 648.561 255.733 645.43 255.733C642.298 255.733 639.76 258.272 639.76 261.403C639.76 264.534 642.298 267.073 645.43 267.073Z" fill="#072AC8" stroke="#072AC8" stroke-miterlimit="10" stroke-linecap="round"/>
<path d="M648.5 442.409C653.194 442.409 657 438.604 657 433.909C657 429.215 653.194 425.409 648.5 425.409C643.806 425.409 640 429.215 640 433.909C640 438.604 643.806 442.409 648.5 442.409Z" fill="#072AC8" stroke="#072AC8" stroke-miterlimit="10" stroke-linecap="round"/>
<path d="M379.8 67.2773C380.592 67.2773 381.234 66.6352 381.234 65.8432C381.234 65.0512 380.592 64.4092 379.8 64.4092C379.008 64.4092 378.366 65.0512 378.366 65.8432C378.366 66.6352 379.008 67.2773 379.8 67.2773Z" fill="#072AC8" stroke="#072AC8" stroke-miterlimit="10" stroke-linecap="round"/>
<path d="M51.434 24.8681C52.226 24.8681 52.8681 24.2261 52.8681 23.4341C52.8681 22.6421 52.226 22 51.434 22C50.642 22 50 22.6421 50 23.4341C50 24.2261 50.642 24.8681 51.434 24.8681Z" fill="#072AC8" stroke="#072AC8" stroke-miterlimit="10" stroke-linecap="round"/>
<path d="M204.434 214.277C205.226 214.277 205.868 213.635 205.868 212.843C205.868 212.051 205.226 211.409 204.434 211.409C203.642 211.409 203 212.051 203 212.843C203 213.635 203.642 214.277 204.434 214.277Z" fill="#072AC8" stroke="#072AC8" stroke-miterlimit="10" stroke-linecap="round"/>
<path d="M1185 451.02V358.909" stroke="#072AC8" stroke-miterlimit="10" stroke-linecap="round"/>
<path d="M1262.5 384.64L1244.31 402.83" stroke="#072AC8" stroke-miterlimit="10" stroke-linecap="round"/>
<path d="M1244.31 402.83V447.058" stroke="#072AC8" stroke-miterlimit="10" stroke-linecap="round"/>
<path d="M1137 451.463V398.409" stroke="#072AC8" stroke-miterlimit="10" stroke-linecap="round"/>
<path d="M1149 452.409L1149 411.409" stroke="#072AC8" stroke-miterlimit="10" stroke-linecap="round"/>
<path d="M1125 451.658V420.409" stroke="#072AC8" stroke-miterlimit="10" stroke-linecap="round"/>
<path d="M1252.75 405.483V451.035" stroke="#072AC8" stroke-miterlimit="10" stroke-linecap="round"/>
<path d="M1197 452.694V393.772" stroke="#072AC8" stroke-miterlimit="10" stroke-linecap="round"/>
<path d="M1252.75 405.483L1263 395.232" stroke="#072AC8" stroke-miterlimit="10" stroke-linecap="round"/>
<path d="M1173 452.697V347.409" stroke="#072AC8" stroke-miterlimit="10" stroke-linecap="round"/>
<path d="M1137 398.28L1144.92 390.365" stroke="#072AC8" stroke-miterlimit="10" stroke-linecap="round"/>
<path d="M1197 393.74L1211.33 379.409" stroke="#072AC8" stroke-miterlimit="10" stroke-linecap="round"/>
<path d="M1185 358.768L1215.36 328.409" stroke="#072AC8" stroke-miterlimit="10" stroke-linecap="round"/>
<path d="M1173 347.307L1189.9 330.409" stroke="#072AC8" stroke-miterlimit="10" stroke-linecap="round"/>
<path d="M1217.5 441.423C1221.64 441.423 1225 438.065 1225 433.923C1225 429.781 1221.64 426.423 1217.5 426.423C1213.36 426.423 1210 429.781 1210 433.923C1210 438.065 1213.36 441.423 1217.5 441.423Z" fill="#072AC8" stroke="#072AC8" stroke-miterlimit="10" stroke-linecap="round"/>
<path d="M1147.5 390.625C1149.5 390.625 1151.11 389.009 1151.11 387.017C1151.11 385.024 1149.5 383.409 1147.5 383.409C1145.51 383.409 1143.9 385.024 1143.9 387.017C1143.9 389.009 1145.51 390.625 1147.5 390.625Z" fill="#072AC8" stroke="#072AC8" stroke-miterlimit="10" stroke-linecap="round"/>
<path d="M1392.99 40.4091C1390.2 40.4091 1387.94 42.6704 1387.94 45.4599C1387.94 48.2494 1390.2 50.5107 1392.99 50.5107C1395.78 50.5107 1398.04 48.2494 1398.04 45.4599C1398.04 42.6704 1395.78 40.4091 1392.99 40.4091Z" fill="#072AC8" stroke="#072AC8" stroke-miterlimit="10" stroke-linecap="round"/>
<path d="M1351.57 314.638C1353.02 314.638 1354.2 313.459 1354.2 312.003C1354.2 310.548 1353.02 309.369 1351.57 309.369C1350.11 309.369 1348.93 310.548 1348.93 312.003C1348.93 313.459 1350.11 314.638 1351.57 314.638Z" fill="#072AC8" stroke="#072AC8" stroke-miterlimit="10" stroke-linecap="round"/>
<path d="M1361 341.409C1362.66 341.409 1364 340.066 1364 338.409C1364 336.752 1362.66 335.409 1361 335.409C1359.34 335.409 1358 336.752 1358 338.409C1358 340.066 1359.34 341.409 1361 341.409Z" fill="#072AC8"/>
<path d="M1161.07 380.378C1162.76 380.378 1164.13 379.005 1164.13 377.312C1164.13 375.618 1162.76 374.245 1161.07 374.245C1159.37 374.245 1158 375.618 1158 377.312C1158 379.005 1159.37 380.378 1161.07 380.378Z" fill="#072AC8" stroke="#072AC8" stroke-miterlimit="10" stroke-linecap="round"/>
<path d="M1227.7 360.364C1229.29 360.364 1230.59 359.071 1230.59 357.477C1230.59 355.883 1229.29 354.591 1227.7 354.591C1226.11 354.591 1224.81 355.883 1224.81 357.477C1224.81 359.071 1226.11 360.364 1227.7 360.364Z" fill="#072AC8" stroke="#072AC8" stroke-miterlimit="10" stroke-linecap="round"/>
<path d="M1402.76 0L1395.38 0V6.95638H1402.76V0Z" fill="#072AC8"/>
<path d="M1423.01 124.407L1418.01 129.834L1423.12 134.549L1428.13 129.122L1423.01 124.407Z" fill="#072AC8"/>
<path d="M1361.09 62.8445L1356.71 58.8072L1361.03 54.1157L1365.41 58.153L1361.09 62.8445Z" stroke="#072AC8"/>
<path d="M855 421.409V435.409H869V421.409H855Z" fill="#072AC8"/>
<path d="M563 350.409V359.409H572V350.409H563Z" fill="#072AC8"/>
<path d="M739.5 410.545L733.136 416.909L739.5 423.273L745.864 416.909L739.5 410.545Z" fill="#072AC8"/>
<path d="M1415.39 75.9849L1415.39 70.8076L1410.51 70.8076L1410.51 75.9849L1415.39 75.9849Z" fill="#072AC8" stroke="#072AC8" stroke-miterlimit="10"/>
<path d="M1274.42 313.132L1270.37 308.83L1266.31 313.132L1270.37 317.434L1274.42 313.132Z" fill="#072AC8"/>
<path d="M1145.06 409.409L1149.06 413.409L1153.06 409.409L1149.06 405.409L1145.06 409.409Z" fill="#072AC8"/>
<path d="M1245.32 272.073V324.135" stroke="#072AC8" stroke-miterlimit="10" stroke-linecap="round"/>
<path d="M1245.32 324.134L1217.9 351.558" stroke="#072AC8" stroke-miterlimit="10" stroke-linecap="round"/>
<path d="M1217.92 351.558V426.48" stroke="#072AC8" stroke-miterlimit="10" stroke-linecap="round"/>
<path d="M1230.06 355.119L1258.24 326.938" stroke="#072AC8" stroke-miterlimit="10" stroke-linecap="round"/>
<path d="M1258.24 326.938H1270.37" stroke="#072AC8" stroke-miterlimit="10" stroke-linecap="round"/>
<path d="M1270.37 326.638V317.047" stroke="#072AC8" stroke-miterlimit="10" stroke-linecap="round"/>
<path d="M1280.21 356.235H1254.48" stroke="#072AC8" stroke-miterlimit="10" stroke-linecap="round"/>
<path d="M1161 380.409V442.246" stroke="#072AC8" stroke-miterlimit="10" stroke-linecap="round"/>
<path d="M1231.61 439.059V379.415" stroke="#072AC8" stroke-miterlimit="10" stroke-linecap="round"/>
<path d="M1231.61 379.415L1237.25 373.777" stroke="#072AC8" stroke-miterlimit="10" stroke-linecap="round"/>
<path d="M1237.25 373.777H1280.24" stroke="#072AC8" stroke-miterlimit="10" stroke-linecap="round"/>
<path d="M1392.99 51.2097L1392.99 232.355" stroke="#072AC8" stroke-miterlimit="10" stroke-linecap="round"/>
<path d="M1361 109.409L1361 196.409" stroke="#072AC8" stroke-miterlimit="10" stroke-linecap="round"/>
<path d="M1423 133.409L1423 177.409" stroke="#072AC8" stroke-miterlimit="10" stroke-linecap="round"/>
<path d="M1374 193.409L1374 245.909" stroke="#072AC8" stroke-miterlimit="10" stroke-linecap="round"/>
<path d="M1403 101.844L1403 206.41" stroke="#072AC8" stroke-miterlimit="10" stroke-linecap="round"/>
<path d="M1403 101.844L1412.95 91.8917" stroke="#072AC8" stroke-miterlimit="10" stroke-linecap="round"/>
<path d="M1412.95 91.8916L1412.95 75.9848" stroke="#072AC8" stroke-miterlimit="10" stroke-linecap="round"/>
<path d="M1382.66 60.6253L1382.66 161.633" stroke="#072AC8" stroke-miterlimit="10" stroke-linecap="round"/>
<path d="M1382.66 161.633L1373.94 170.354" stroke="#072AC8" stroke-miterlimit="10" stroke-linecap="round"/>
<path d="M190.928 458.098V278.889" stroke="#072AC8" stroke-miterlimit="10" stroke-linecap="round"/>
<path d="M190.928 278.889L177.216 265.177" stroke="#072AC8" stroke-miterlimit="10" stroke-linecap="round"/>
<path d="M213.365 410.186V262.416" stroke="#072AC8" stroke-miterlimit="10" stroke-linecap="round"/>
<path d="M203.024 278.871L171.271 247.119" stroke="#072AC8" stroke-miterlimit="10" stroke-linecap="round"/>
<path d="M203.024 278.871V458.097" stroke="#072AC8" stroke-miterlimit="10" stroke-linecap="round"/>
<path d="M283.462 463.409L283.462 401.409" stroke="#072AC8" stroke-miterlimit="10" stroke-linecap="round"/>
<path d="M283.077 400.961L279.154 397.039" stroke="#072AC8" stroke-miterlimit="10" stroke-linecap="round"/>
<path d="M313.462 465.4V439.911" stroke="#072AC8" stroke-miterlimit="10" stroke-linecap="round"/>
<path d="M302.462 458.409L302.462 427.409" stroke="#072AC8" stroke-miterlimit="10" stroke-linecap="round"/>
<path d="M273.699 409.409L273.699 463.409" stroke="#072AC8" stroke-miterlimit="10" stroke-linecap="round"/>
<path d="M213.365 410.187L217.649 414.471" stroke="#072AC8" stroke-miterlimit="10" stroke-linecap="round"/>
<path d="M302.239 427.155C305.825 427.155 308.732 424.239 308.732 420.642C308.732 417.046 305.825 414.13 302.239 414.13C298.652 414.13 295.745 417.046 295.745 420.642C295.745 424.239 298.652 427.155 302.239 427.155Z" fill="#072AC8" stroke="#072AC8" stroke-miterlimit="10" stroke-linecap="round"/>
<path d="M222.154 350.429C223.848 350.429 225.221 349.056 225.221 347.362C225.221 345.669 223.848 344.296 222.154 344.296C220.46 344.296 219.087 345.669 219.087 347.362C219.087 349.056 220.46 350.429 222.154 350.429Z" fill="#072AC8" stroke="#072AC8" stroke-miterlimit="10" stroke-linecap="round"/>
<path d="M276.765 397.729C278.459 397.729 279.832 396.35 279.832 394.649C279.832 392.949 278.459 391.57 276.765 391.57C275.072 391.57 273.699 392.949 273.699 394.649C273.699 396.35 275.072 397.729 276.765 397.729Z" fill="#072AC8" stroke="#072AC8" stroke-miterlimit="10" stroke-linecap="round"/>
<path d="M238.699 463.409L238.699 439.537" stroke="#072AC8" stroke-miterlimit="10" stroke-linecap="round"/>
<path d="M238.699 439.409L256.826 421.278" stroke="#072AC8" stroke-miterlimit="10" stroke-linecap="round"/>
<path d="M228.699 460.409L228.699 354.409" stroke="#072AC8" stroke-miterlimit="10" stroke-linecap="round"/>
<path d="M228.616 353.971L224.563 349.918" stroke="#072AC8" stroke-miterlimit="10" stroke-linecap="round"/>
<path d="M260.88 378.1L256.825 373.798L252.771 378.1L256.825 382.402L260.88 378.1Z" fill="#072AC8"/>
<path d="M256.826 421.278V379.287" stroke="#072AC8" stroke-miterlimit="10" stroke-linecap="round"/>
<path d="M1280.24 355.876L1290.08 346.038" stroke="#072AC8" stroke-miterlimit="10" stroke-linecap="round"/>
<path d="M1280.24 373.764L1299.92 354.088" stroke="#072AC8" stroke-miterlimit="10" stroke-linecap="round"/>
<path d="M1299.92 354.088V316.524" stroke="#072AC8" stroke-miterlimit="10" stroke-linecap="round"/>
<path d="M1263 395.229H1316.91" stroke="#072AC8" stroke-miterlimit="10" stroke-linecap="round"/>
<path d="M1316.91 395.229L1328.54 383.603" stroke="#072AC8" stroke-miterlimit="10" stroke-linecap="round"/>
<path d="M1351 417.134L1375.5 392.635" stroke="#072AC8" stroke-miterlimit="10" stroke-linecap="round"/>
<path d="M1375.5 392.546V335.306" stroke="#072AC8" stroke-miterlimit="10" stroke-linecap="round"/>
<path d="M1361 374.409L1361 340.409" stroke="#072AC8" stroke-miterlimit="10" stroke-linecap="round"/>
<path d="M1385.78 406.856L1414.85 435.923" stroke="#072AC8" stroke-miterlimit="10" stroke-linecap="round"/>
<path d="M1385.78 406.856V381.813" stroke="#072AC8" stroke-miterlimit="10" stroke-linecap="round"/>
<path d="M1385.78 381.813L1396.51 371.081" stroke="#072AC8" stroke-miterlimit="10" stroke-linecap="round"/>
<path d="M1396.51 371.081V306.686" stroke="#072AC8" stroke-miterlimit="10" stroke-linecap="round"/>
<path d="M1438.76 363.926L1431.6 356.771" stroke="#072AC8" stroke-miterlimit="10" stroke-linecap="round"/>
<path d="M1431.6 356.771V273.594" stroke="#072AC8" stroke-miterlimit="10" stroke-linecap="round"/>
<path d="M1431.6 273.594L1440.99 264.203" stroke="#072AC8" stroke-miterlimit="10" stroke-linecap="round"/>
<path d="M1423.34 360.348V203.832" stroke="#072AC8" stroke-miterlimit="10" stroke-linecap="round"/>
<path d="M1423.34 360.349L1437.65 374.659" stroke="#072AC8" stroke-miterlimit="10" stroke-linecap="round"/>
<path d="M1262.35 384.496H1319.59" stroke="#072AC8" stroke-miterlimit="10" stroke-linecap="round"/>
<path d="M1319.59 384.497L1336.59 367.503" stroke="#072AC8" stroke-miterlimit="10" stroke-linecap="round"/>
<path d="M1336.59 367.503V327.256" stroke="#072AC8" stroke-miterlimit="10" stroke-linecap="round"/>
<path d="M1336.59 327.257L1349.56 314.288" stroke="#072AC8" stroke-miterlimit="10" stroke-linecap="round"/>
<path d="M1290.08 346.038V332.623" stroke="#072AC8" stroke-miterlimit="10" stroke-linecap="round"/>
<path d="M1403 355.876V376.06" stroke="#072AC8" stroke-miterlimit="10" stroke-linecap="round"/>
<path d="M1403 376.218L1393 386.409" stroke="#072AC8" stroke-miterlimit="10" stroke-linecap="round"/>
<path d="M1393 386.409V402.409" stroke="#072AC8" stroke-miterlimit="10" stroke-linecap="round"/>
<path d="M1393 402.409L1408.58 418.036" stroke="#072AC8" stroke-miterlimit="10" stroke-linecap="round"/>
<path d="M1432.86 379.13L1415 361.409" stroke="#072AC8" stroke-miterlimit="10" stroke-linecap="round"/>
<path d="M1414.98 361.243V291.481" stroke="#072AC8" stroke-miterlimit="10" stroke-linecap="round"/>
<path d="M1414.98 291.481L1402.9 279.407" stroke="#072AC8" stroke-miterlimit="10" stroke-linecap="round"/>
<path d="M1429.6 418.483L1413.5 402.384" stroke="#072AC8" stroke-miterlimit="10" stroke-linecap="round"/>
<path d="M1413.5 402.384V383.603" stroke="#072AC8" stroke-miterlimit="10" stroke-linecap="round"/>
<path d="M1264.2 418.409L1275.2 407.409" stroke="#072AC8" stroke-miterlimit="10" stroke-linecap="round"/>
<path d="M1275.31 407.297H1334.34" stroke="#072AC8" stroke-miterlimit="10" stroke-linecap="round"/>
<path d="M1334.34 407.297L1343.28 398.354" stroke="#072AC8" stroke-miterlimit="10" stroke-linecap="round"/>
<path d="M1337.48 426.328V435.272" stroke="#072AC8" stroke-miterlimit="10" stroke-linecap="round"/>
<path d="M1337.48 422.271L1334.32 425.434L1337.48 428.596L1340.64 425.434L1337.48 422.271Z" fill="#072AC8"/>
<path d="M1250.28 263.309H1240.44V273.147H1250.28V263.309Z" fill="#072AC8"/>
<path d="M1399.64 301.767H1393.38V308.028H1399.64V301.767Z" fill="#072AC8"/>
<path d="M1401.56 279.854C1402.55 279.854 1403.35 279.054 1403.35 278.066C1403.35 277.078 1402.55 276.277 1401.56 276.277C1400.57 276.277 1399.77 277.078 1399.77 278.066C1399.77 279.054 1400.57 279.854 1401.56 279.854Z" fill="#072AC8" stroke="#072AC8" stroke-miterlimit="10" stroke-linecap="round"/>
<path d="M1299.92 316.524C1300.91 316.524 1301.71 315.723 1301.71 314.735C1301.71 313.747 1300.91 312.946 1299.92 312.946C1298.93 312.946 1298.13 313.747 1298.13 314.735C1298.13 315.723 1298.93 316.524 1299.92 316.524Z" fill="#072AC8" stroke="#072AC8" stroke-miterlimit="10" stroke-linecap="round"/>
<path d="M1413.5 383.602C1415.48 383.602 1417.08 382.001 1417.08 380.025C1417.08 378.049 1415.48 376.447 1413.5 376.447C1411.53 376.447 1409.93 378.049 1409.93 380.025C1409.93 382.001 1411.53 383.602 1413.5 383.602Z" fill="#072AC8" stroke="#072AC8" stroke-miterlimit="10" stroke-linecap="round"/>
<path d="M1431.84 399.254C1433.07 399.254 1434.07 398.253 1434.07 397.018C1434.07 395.783 1433.07 394.782 1431.84 394.782C1430.6 394.782 1429.6 395.783 1429.6 397.018C1429.6 398.253 1430.6 399.254 1431.84 399.254Z" fill="#072AC8" stroke="#072AC8" stroke-miterlimit="10" stroke-linecap="round"/>
<path d="M1318.7 284.326H1312.44V290.587H1318.7V284.326Z" fill="#072AC8" stroke="#072AC8" stroke-miterlimit="10" stroke-linecap="round"/>
<path d="M1275.62 224.241L1273.24 223L1272 225.379L1274.38 226.62L1275.62 224.241Z" stroke="#072AC8" stroke-miterlimit="10" stroke-linecap="round"/>
<path d="M1365.31 249.72L1361 245.409L1356.69 249.72L1361 254.031L1365.31 249.72Z" stroke="#072AC8" stroke-miterlimit="10" stroke-linecap="round"/>
<path d="M178.375 458.098V354.35" stroke="#072AC8" stroke-miterlimit="10" stroke-linecap="round"/>
<path d="M178.375 354.35L146.178 322.153" stroke="#072AC8" stroke-miterlimit="10" stroke-linecap="round"/>
<path d="M146.178 322.153V288.167" stroke="#072AC8" stroke-miterlimit="10" stroke-linecap="round"/>
<path d="M86.3108 290.849L108.67 313.209" stroke="#072AC8" stroke-miterlimit="10" stroke-linecap="round"/>
<path d="M108.67 313.208V458.098" stroke="#072AC8" stroke-miterlimit="10" stroke-linecap="round"/>
<path d="M57.6345 463.464V394.597" stroke="#072AC8" stroke-miterlimit="10" stroke-linecap="round"/>
<path d="M57.6345 394.597L-0.5 336.463" stroke="#072AC8" stroke-miterlimit="10" stroke-linecap="round"/>
<path d="M52.2683 455.415V412.485" stroke="#072AC8" stroke-miterlimit="10" stroke-linecap="round"/>
<path d="M52.2683 412.485L3.97192 364.188" stroke="#072AC8" stroke-miterlimit="10" stroke-linecap="round"/>
<path d="M6.65503 382.076L20.9651 396.386" stroke="#072AC8" stroke-miterlimit="10" stroke-linecap="round"/>
<path d="M20.9651 396.386V455.415" stroke="#072AC8" stroke-miterlimit="10" stroke-linecap="round"/>
<path d="M36.1694 438.421V458.098" stroke="#072AC8" stroke-miterlimit="10" stroke-linecap="round"/>
<path d="M94.304 455.415V334.674" stroke="#072AC8" stroke-miterlimit="10"/>
<path d="M94.304 334.674L64.7896 305.159" stroke="#072AC8" stroke-miterlimit="10"/>
<path d="M64.7896 305.159V241.659" stroke="#072AC8" stroke-miterlimit="10"/>
<path d="M100 281.91V218.409" stroke="#072AC8" stroke-miterlimit="10" stroke-linecap="round"/>
<path d="M123 195.409L123 153.409" stroke="#072AC8" stroke-miterlimit="10" stroke-linecap="round"/>
<path d="M150 267.409V231.409" stroke="#072AC8" stroke-miterlimit="10" stroke-linecap="round"/>
<path d="M127 292.409V225.409" stroke="#072AC8" stroke-miterlimit="10" stroke-linecap="round"/>
<path d="M65 194.91V131.409" stroke="#072AC8" stroke-miterlimit="10" stroke-linecap="round"/>
<path d="M86 199.409V121.409" stroke="#072AC8" stroke-miterlimit="10" stroke-linecap="round"/>
<path d="M42 247.409L42 195.409" stroke="#072AC8" stroke-miterlimit="10" stroke-linecap="round"/>
<path d="M21 223.409V151.409" stroke="#072AC8" stroke-miterlimit="10" stroke-linecap="round"/>
<path d="M168.009 458.097V365.977" stroke="#072AC8" stroke-miterlimit="10"/>
<path d="M168.009 365.977L133.128 331.096" stroke="#072AC8" stroke-miterlimit="10"/>
<path d="M133.128 331.096V321.258" stroke="#072AC8" stroke-miterlimit="10" stroke-linecap="round"/>
<path d="M146.178 463.464V425.9" stroke="#072AC8" stroke-miterlimit="10" stroke-linecap="round"/>
<path d="M146.178 425.9L130.973 410.696" stroke="#072AC8" stroke-miterlimit="10" stroke-linecap="round"/>
<path d="M130.973 410.696V379.393" stroke="#072AC8" stroke-miterlimit="10" stroke-linecap="round"/>
<path d="M122.03 433.95V460.781" stroke="#072AC8" stroke-miterlimit="10" stroke-linecap="round"/>
<path d="M70.603 455.862V374.474" stroke="#072AC8" stroke-miterlimit="10" stroke-linecap="round"/>
<path d="M70.603 374.474L41.9829 345.854" stroke="#072AC8" stroke-miterlimit="10" stroke-linecap="round"/>
<path d="M41.9829 345.854V311.867" stroke="#072AC8" stroke-miterlimit="10" stroke-linecap="round"/>
<path d="M41.5358 311.42C43.5116 311.42 45.1133 309.818 45.1133 307.842C45.1133 305.866 43.5116 304.265 41.5358 304.265C39.56 304.265 37.9583 305.866 37.9583 307.842C37.9583 309.818 39.56 311.42 41.5358 311.42Z" fill="#072AC8" stroke="#072AC8" stroke-miterlimit="10" stroke-linecap="round"/>
<path d="M36.1694 438.421C37.0338 438.421 37.7346 437.721 37.7346 436.856C37.7346 435.992 37.0338 435.291 36.1694 435.291C35.305 435.291 34.6042 435.992 34.6042 436.856C34.6042 437.721 35.305 438.421 36.1694 438.421Z" fill="#072AC8" stroke="#072AC8" stroke-miterlimit="10" stroke-linecap="round"/>
<path d="M146.178 288.167C147.66 288.167 148.861 286.965 148.861 285.483C148.861 284.002 147.66 282.8 146.178 282.8C144.696 282.8 143.495 284.002 143.495 285.483C143.495 286.965 144.696 288.167 146.178 288.167Z" fill="#072AC8" stroke="#072AC8" stroke-miterlimit="10" stroke-linecap="round"/>
<path d="M123 153.409C125.209 153.409 127 151.618 127 149.409C127 147.2 125.209 145.409 123 145.409C120.791 145.409 119 147.2 119 149.409C119 151.618 120.791 153.409 123 153.409Z" stroke="#072AC8" stroke-miterlimit="10" stroke-linecap="round"/>
<path d="M66.5782 239.423H63.0007V243H66.5782V239.423Z" fill="#072AC8"/>
<path d="M152 228.409H148V232.409H152V228.409Z" fill="#072AC8"/>
<path d="M173.472 244.789H169V249.261H173.472V244.789Z" fill="#072AC8"/>
<path d="M100 218.409L123 195.409" stroke="#072AC8" stroke-linecap="round"/>
<path d="M127 225.409L150 202.409" stroke="#072AC8" stroke-linecap="round"/>
<path d="M65 131.409L41.5 107.909" stroke="#072AC8" stroke-linecap="round"/>
<path d="M21 223.409L-6 250.409" stroke="#072AC8" stroke-linecap="round"/>
<path d="M21 265.409L-6 292.409" stroke="#072AC8" stroke-linecap="round"/>
<path d="M86 199.409L64.5 220.909" stroke="#072AC8" stroke-linecap="round"/>
<path d="M1361 196.409L1326 231.409" stroke="#072AC8" stroke-linecap="round"/>
<path d="M1361 218.409L1340 239.409" stroke="#072AC8" stroke-linecap="round"/>
<path d="M1326 231.409V274.409" stroke="#072AC8" stroke-linecap="round"/>
<path d="M1374 245.909L1390 261.909" stroke="#072AC8" stroke-linecap="round"/>
<circle cx="38" cy="104.409" r="5" fill="#072AC8"/>
</svg>
