<svg width="82" height="309" viewBox="0 0 82 309" fill="none" xmlns="http://www.w3.org/2000/svg">
<path d="M32.5858 125C34.2427 125 35.5858 123.657 35.5858 122C35.5858 120.343 34.2427 119 32.5858 119C30.929 119 29.5858 120.343 29.5858 122C29.5858 123.657 30.929 125 32.5858 125Z" fill="#072AC8" stroke="#072AC8" stroke-miterlimit="10" stroke-linecap="round"/>
<path d="M70.0858 8C72.0188 8 73.5858 6.43301 73.5858 4.50002C73.5858 2.56702 72.0188 1 70.0858 1C68.1528 1 66.5858 2.56702 66.5858 4.50002C66.5858 6.43301 68.1528 8 70.0858 8Z" stroke="#072AC8" stroke-miterlimit="10" stroke-linecap="round"/>
<path d="M32.5858 125L32.5858 195" stroke="#072AC8" stroke-miterlimit="10" stroke-linecap="round"/>
<path d="M69.5858 8L69.5858 98" stroke="#072AC8" stroke-miterlimit="10" stroke-linecap="round"/>
<path d="M69.5858 98L50.0858 117.5V177.5" stroke="#072AC8" stroke-linecap="round"/>
<path d="M69.5858 142L69.5858 195" stroke="#072AC8" stroke-linecap="round"/>
<path d="M50.5858 201L50.5858 254" stroke="#072AC8" stroke-linecap="round"/>
<path d="M33.5858 225L33.5858 264" stroke="#072AC8" stroke-linecap="round"/>
<rect x="67.0858" y="136.5" width="5" height="5" stroke="#072AC8"/>
<rect x="47.5858" y="195" width="6" height="6" fill="#072AC8"/>
<path d="M50.5858 254L64.5858 268" stroke="#072AC8" stroke-linecap="round"/>
<path d="M33.5858 264L46.0858 276.5" stroke="#072AC8" stroke-linecap="round"/>
<path d="M64.5858 268L64.5858 308" stroke="#072AC8" stroke-linecap="round"/>
<circle cx="33.5858" cy="220" r="4.5" stroke="#072AC8"/>
<path d="M69.5858 195L81.5858 207" stroke="#072AC8" stroke-linecap="round"/>
<path d="M46.5858 62L46.5858 102" stroke="#072AC8" stroke-linecap="round"/>
<circle cx="46.5858" cy="59" r="2.5" stroke="#072AC8"/>
<rect x="19.071" y="8" width="12" height="12" transform="rotate(45 19.071 8)" fill="#072AC8"/>
<rect x="7.41418" y="88" width="4" height="4" transform="rotate(45 7.41418 88)" fill="#072AC8"/>
<rect x="1.41418" y="265" width="2" height="2" transform="rotate(45 1.41418 265)" fill="#072AC8"/>
</svg>
