<svg width="94" height="465" viewBox="0 0 94 465" fill="none" xmlns="http://www.w3.org/2000/svg">
<path d="M74 439V365" stroke="#072AC8" stroke-linecap="round"/>
<path d="M54 439L54 384" stroke="#072AC8" stroke-linecap="round"/>
<path d="M94.5 459.5L74 439" stroke="#072AC8" stroke-linecap="round"/>
<path d="M74 365L53.5 344.5" stroke="#072AC8" stroke-linecap="round"/>
<path d="M85 350L48.5 313.5" stroke="#072AC8" stroke-linecap="round"/>
<path d="M85 350H94" stroke="#072AC8" stroke-linecap="round"/>
<path d="M48.5 313.5V233.5" stroke="#072AC8" stroke-linecap="round"/>
<path d="M67 299.5L67 268.5" stroke="#072AC8" stroke-linecap="round"/>
<path d="M81 322L81 291" stroke="#072AC8" stroke-linecap="round"/>
<path d="M49 203.243L49 172.243" stroke="#072AC8" stroke-linecap="round"/>
<rect x="50" y="376" width="8" height="8" fill="#072AC8"/>
<rect x="50.6569" y="336.707" width="7" height="7" transform="rotate(45 50.6569 336.707)" stroke="#072AC8"/>
<path d="M67 268.5L94.5 241" stroke="#072AC8" stroke-linecap="round"/>
<path d="M67 244.5L81.5 230" stroke="#072AC8" stroke-linecap="round"/>
<path d="M81.5 230V184.5" stroke="#072AC8" stroke-linecap="round"/>
<path d="M81.5 184.5L94 172" stroke="#072AC8" stroke-linecap="round"/>
<path d="M82 163L96 149" stroke="#072AC8" stroke-linecap="round"/>
<circle cx="48.5" cy="228.5" r="5" stroke="#072AC8"/>
<rect x="81" y="283.757" width="6" height="6" transform="rotate(45 81 283.757)" fill="#072AC8"/>
<path d="M65 154L94 125" stroke="#072AC8" stroke-linecap="round"/>
<path d="M65 210.5V154" stroke="#072AC8" stroke-linecap="round"/>
<circle cx="49" cy="170" r="3" fill="#072AC8"/>
<path d="M49 154.432L49 82.9316" stroke="#072AC8" stroke-miterlimit="10" stroke-linecap="round"/>
<path d="M49 82.8935L67.8934 64" stroke="#072AC8" stroke-miterlimit="10" stroke-linecap="round"/>
<path d="M49 67.8935L67.8934 49" stroke="#072AC8" stroke-miterlimit="10" stroke-linecap="round"/>
<path d="M80 9V67.5" stroke="#072AC8" stroke-miterlimit="10" stroke-linecap="round"/>
<path d="M80 68L65.162 82.838" stroke="#072AC8" stroke-miterlimit="10" stroke-linecap="round"/>
<path d="M65 83L65 136" stroke="#072AC8" stroke-miterlimit="10" stroke-linecap="round"/>
<path d="M85 0H75V10H85V0Z" fill="#072AC8"/>
<path d="M68 49L68 28" stroke="#072AC8" stroke-linecap="round"/>
<rect x="15.4852" y="299" width="12" height="12" transform="rotate(45 15.4852 299)" fill="#072AC8"/>
<rect x="32" y="26" width="4" height="4" fill="#072AC8"/>
<rect y="114" width="3" height="3" fill="#072AC8"/>
<circle cx="43" cy="463" r="2" fill="#072AC8"/>
</svg>
