<svg width="10" height="20" viewBox="0 0 10 20" fill="none" xmlns="http://www.w3.org/2000/svg">
<path d="M1.46666 7.17325L7.58665 1.05325C7.83647 0.804916 8.17441 0.665527 8.52666 0.665527C8.8789 0.665527 9.21684 0.804916 9.46666 1.05325C9.59163 1.1772 9.69082 1.32467 9.75851 1.48715C9.8262 1.64963 9.86105 1.8239 9.86105 1.99992C9.86105 2.17593 9.8262 2.35021 9.75851 2.51269C9.69082 2.67517 9.59163 2.82263 9.46666 2.94658L3.33332 9.05325C3.20835 9.1772 3.10916 9.32467 3.04147 9.48715C2.97378 9.64963 2.93892 9.8239 2.93892 9.99992C2.93892 10.1759 2.97378 10.3502 3.04147 10.5127C3.10916 10.6752 3.20835 10.8226 3.33332 10.9466L9.46666 17.0533C9.71773 17.3026 9.85948 17.6414 9.86073 17.9952C9.86198 18.349 9.72262 18.6888 9.47332 18.9399C9.22402 19.191 8.88519 19.3327 8.53137 19.334C8.17755 19.3352 7.83773 19.1959 7.58665 18.9466L1.46666 12.8266C0.717587 12.0766 0.296841 11.0599 0.296841 9.99992C0.296841 8.93992 0.717587 7.92325 1.46666 7.17325Z" fill="black"/>
</svg>