<svg width="24" height="22" viewBox="0 0 24 22" fill="none" xmlns="http://www.w3.org/2000/svg">
    <path d="M23.493 10.017C23.006 9.36298 22.259 8.98698 21.443 8.98698H21V6.99998C21 4.24298 18.757 1.99998 16 1.99998H10.944C10.79 1.99998 10.634 1.96298 10.497 1.89498L7.342 0.316977C6.928 0.109977 6.464 0.00097698 6 0.00097698H4C1.794 -2.30197e-05 0 1.79398 0 3.99998V17C0 19.757 2.243 22 5 22H17.558C19.784 22 21.708 20.568 22.36 18.393L23.892 12.277C24.126 11.495 23.98 10.672 23.493 10.017ZM2 17V3.99998C2 2.89698 2.897 1.99998 4 1.99998H6C6.154 1.99998 6.31 2.03698 6.447 2.10498L9.602 3.68298C10.016 3.88998 10.48 3.99898 10.944 3.99898H16C17.654 3.99898 19 5.34498 19 6.99898V8.98598H8.615C6.915 8.98598 5.397 10.065 4.826 11.706L2.636 18.844C2.238 18.335 2 17.695 2 17ZM21.964 11.747L20.432 17.862C20.048 19.141 18.893 20 17.558 20H5C4.792 20 4.589 19.979 4.393 19.938L6.727 12.329C7.006 11.526 7.766 10.987 8.616 10.987H21.444C21.686 10.987 21.827 11.127 21.889 11.211C21.951 11.295 22.045 11.47 21.964 11.747Z" fill="black"/>
    </svg>
    