<svg width="248" height="60" viewBox="0 0 248 60" fill="none" xmlns="http://www.w3.org/2000/svg">
    <g clip-path="url(#clip0_17_24)">
    <path fill-rule="evenodd" clip-rule="evenodd" d="M112.681 4.81694C109.026 5.73205 107.381 10.3022 109.269 14.2968C110.989 17.9354 116.42 18.0993 118.184 14.5657C118.82 13.2931 118.777 13.1449 117.774 13.1449C117.033 13.1449 116.855 13.2497 116.601 13.8372C116.153 14.8692 115.24 15.3784 113.829 15.3815C112.343 15.3848 111.546 14.858 110.784 13.3684C110.328 12.4773 110.259 12.0509 110.34 10.6211C110.501 7.79885 111.643 6.4947 113.954 6.4947C115.238 6.4947 116.098 7.02552 116.682 8.17815C116.966 8.74055 117.182 8.86975 117.839 8.86975C118.865 8.86975 118.897 8.41588 117.976 6.9317C116.962 5.29743 114.573 4.34336 112.681 4.81694ZM150.963 7.95985C150.064 8.21924 148.995 9.14028 148.524 10.0604C147.724 11.6218 147.909 14.1405 148.93 15.6048C149.527 16.4624 151.028 17.1721 152.242 17.1721C153.861 17.1721 155.845 15.9211 155.845 14.9003C155.845 14.7483 155.513 14.574 155.107 14.5132C154.522 14.4255 154.261 14.5308 153.849 15.0207C153.426 15.5223 153.124 15.6387 152.243 15.6387C151.311 15.6387 151.062 15.5292 150.479 14.863C150.106 14.4364 149.801 13.822 149.801 13.4974V12.9074H152.939H156.078V12.3001C156.078 10.1559 154.918 8.44414 153.12 7.93398C152.106 7.64612 152.048 7.64683 150.963 7.95985ZM179.211 8.03755C176.327 9.07474 175.572 13.9664 177.959 16.1439C179.687 17.7198 183.328 17.2811 184.169 15.396C184.529 14.5894 184.558 14.6357 183.612 14.5229C182.989 14.4488 182.727 14.5291 182.562 14.845C182.441 15.0763 181.935 15.39 181.438 15.5423C180.176 15.9287 178.86 15.2848 178.48 14.0949C178.334 13.6377 178.262 13.1836 178.319 13.0855C178.377 12.9874 179.84 12.9074 181.57 12.9074H184.715L184.562 11.898C184.194 9.47232 183.438 8.42253 181.703 7.93018C180.603 7.61834 180.346 7.62927 179.211 8.03755ZM188.918 7.94753C187.89 8.25105 186.692 9.53382 186.351 10.6957C185.341 14.14 187.231 17.1825 190.382 17.1825C191.372 17.1825 193.011 16.2726 193.399 15.5074C193.947 14.4239 193.846 14.0949 192.965 14.0949C192.364 14.0949 192.129 14.2282 191.927 14.682C191.635 15.3366 190.939 15.5934 189.77 15.4782C188.647 15.3675 187.929 14.2078 187.929 12.5041C187.929 10.3675 188.708 9.34479 190.334 9.34479C190.947 9.34479 191.285 9.51721 191.729 10.0573C192.463 10.9484 193.741 11.0843 193.741 10.2711C193.741 9.55569 192.365 8.25082 191.289 7.94563C190.226 7.64398 189.947 7.64422 188.918 7.94753ZM206.687 8.02636C205.542 8.44344 205.022 8.93841 204.442 10.1637C203.55 12.0459 203.999 14.8725 205.393 16.1439C206.155 16.8393 207.569 17.2618 208.641 17.1148C211.233 16.7598 212.705 14.1968 212.067 11.1524C211.757 9.67113 210.559 8.33347 209.196 7.94704C208.038 7.61857 207.785 7.6264 206.687 8.02636ZM216.738 7.90928C215.63 8.25223 214.924 8.90039 214.328 10.1238C213.015 12.8145 213.97 15.8874 216.416 16.8415C218.241 17.5537 220.729 16.8275 221.368 15.396C221.725 14.5946 221.75 14.6402 220.892 14.5118C220.31 14.4243 220.051 14.5198 219.727 14.9417C218.502 16.5317 215.595 15.443 215.595 13.3943C215.595 12.9273 215.725 12.9074 218.764 12.9074H221.932L221.773 11.6828C221.507 9.63337 220.78 8.61823 219.156 8.02636C218.161 7.6637 217.616 7.63734 216.738 7.90928ZM120.275 8.63225V9.34479H121.669H123.064V13.1449V16.945H123.872H124.68L124.744 13.2043L124.808 9.46354L126.261 9.39277C127.7 9.32292 127.714 9.31509 127.714 8.62085V7.91973H123.994H120.275V8.63225ZM128.876 8.01093C128.876 8.06107 129.574 10.0651 130.426 12.4642C131.278 14.8633 131.964 17.0231 131.95 17.2635C131.902 18.0964 131.227 18.8451 130.524 18.8451C129.876 18.8451 129.574 19.1911 129.574 19.9333C129.574 20.177 129.879 20.2699 130.678 20.2689C132.581 20.2668 132.831 19.9018 134.899 14.0949C137.363 7.17656 137.212 7.91973 136.152 7.91973H135.258L134.143 11.3636C133.53 13.2577 132.989 14.8075 132.941 14.8075C132.893 14.8075 132.374 13.2577 131.787 11.3636L130.72 7.91973H129.798C129.291 7.91973 128.876 7.96083 128.876 8.01093ZM139.25 9.04789C139.177 9.66826 139.051 10.9242 138.971 11.8386C138.785 13.9432 138.152 15.5199 137.492 15.5199C137.047 15.5199 137.014 15.6598 137.014 17.5388V19.5576H137.944H138.874V18.2513V16.945H141.896H144.919V18.2513V19.5576H145.848H146.778V17.5388V15.5199H146.081H145.384V11.7198V7.91973H142.383H139.383L139.25 9.04789ZM157.938 12.4324V16.945H158.742H159.546L159.614 15.1043L159.681 13.2637L161.6 13.1948L163.518 13.1257V15.0355V16.945H164.331H165.145V12.4324V7.91973H164.331H163.518V9.82931V11.7391L161.6 11.67L159.681 11.6011L159.614 9.76041L159.546 7.91973H158.742H157.938V12.4324ZM167.47 9.70863C167.47 12.9756 168.432 14.0925 171.248 14.094L172.817 14.0949V15.5199V16.945H173.747H174.677V12.4324V7.91973H173.747H172.817V10.1506C172.817 12.6281 172.79 12.6699 171.197 12.6699C170.673 12.6699 170.088 12.4853 169.765 12.2181C169.29 11.8248 169.208 11.5175 169.133 9.84307L169.048 7.91973H168.259H167.47V9.70863ZM195.601 12.4324V16.945H196.531H197.461V15.1637C197.461 13.443 197.48 13.3824 198.018 13.3824C198.437 13.3824 198.904 13.823 199.91 15.1637C201.221 16.9127 201.264 16.945 202.288 16.945C203.086 16.945 203.278 16.8754 203.107 16.6481C200.589 13.2974 199.968 12.3321 200.157 12.0559C200.272 11.8863 201.027 10.8864 201.835 9.83357L203.303 7.91973H202.258C201.23 7.91973 201.191 7.94943 199.744 9.81932C197.8 12.3326 197.461 12.3329 197.461 9.81978V7.91973H196.531H195.601V12.4324ZM143.64 12.4324V15.4012L141.693 15.4706C139.9 15.5347 139.76 15.5067 139.915 15.1143C140.293 14.164 140.469 13.3301 140.616 11.792C140.861 9.23908 140.809 9.31175 142.322 9.393L143.64 9.46354V12.4324ZM153.647 9.92785C153.961 10.2485 154.218 10.7829 154.218 11.1154V11.7198H152.01C149.928 11.7198 149.801 11.6914 149.801 11.2265C149.801 10.9553 150.106 10.4209 150.48 10.039C151.385 9.11512 152.803 9.06524 153.647 9.92785ZM181.904 9.64926C182.362 10.0077 182.814 10.8529 182.814 11.3479C182.814 11.6593 182.455 11.7198 180.605 11.7198C178.486 11.7198 178.397 11.6987 178.397 11.1985C178.397 10.9116 178.678 10.3772 179.021 10.011C179.509 9.49108 179.854 9.34643 180.591 9.35239C181.111 9.35642 181.701 9.49013 181.904 9.64926ZM209.34 9.64926C210.387 10.4654 210.787 12.6478 210.168 14.1619C209.728 15.2373 209.225 15.5848 208.109 15.5848C207.308 15.5848 206.919 15.5057 206.359 14.8646C205.714 14.1279 205.643 13.8757 205.643 12.2642C205.84 10.6343 206.025 10.4224 206.605 9.91289C207.319 9.28541 208.703 9.15191 209.34 9.64926ZM219.442 9.92785C219.756 10.2485 220.013 10.7829 220.013 11.1154V11.7198H217.804C215.723 11.7198 215.595 11.6914 215.595 11.2265C215.595 10.9553 215.901 10.4209 216.275 10.039C217.179 9.11512 218.597 9.06524 219.442 9.92785Z" fill="white"/>
    <path fill-rule="evenodd" clip-rule="evenodd" d="M108.871 30.2963V36.3665L109.742 36.2928L110.614 36.2191L110.68 33.5474C110.745 30.8882 110.748 30.8757 111.315 30.8757C111.771 30.8757 112.288 31.424 113.893 33.6067L115.9 36.338H116.932C118.149 36.338 118.267 36.6283 115.56 32.9532C114.429 31.4185 113.444 30.0012 113.369 29.8036C113.283 29.5717 113.922 28.6703 115.182 27.2511C118.06 24.0076 117.95 24.2261 116.705 24.2261C115.656 24.2261 115.635 24.2421 113.497 26.7199C112.314 28.0911 111.207 29.2133 111.038 29.2133C110.802 29.2133 110.73 28.63 110.73 26.7199V24.2261H109.8H108.871V30.2963ZM120.776 27.5655C119.032 28.4715 118.165 30.6815 118.649 32.9868C119.106 35.1665 120.593 36.4056 122.75 36.4056C124.204 36.4056 125.603 35.5909 126.211 34.3902C126.839 33.149 126.909 30.9139 126.359 29.6439C125.382 27.3878 122.899 26.4632 120.776 27.5655ZM140.361 27.407C139.376 27.8451 138.208 29.2839 138.025 30.2849C137.375 33.8231 139.049 36.4056 141.992 36.4056C143.424 36.4056 144.535 35.8536 145.139 34.8419C145.774 33.7791 145.716 33.4881 144.874 33.4881C144.374 33.4881 143.955 33.7052 143.503 34.2007C142.301 35.5147 140.369 34.9436 139.773 33.0985C139.445 32.0819 139.624 30.3957 140.147 29.5798C140.953 28.3228 142.834 28.3119 143.634 29.5589C143.926 30.0155 144.22 30.1631 144.833 30.1631C145.602 30.1631 145.637 30.1288 145.486 29.5103C145.02 27.5917 142.379 26.5082 140.361 27.407ZM158.765 27.7865L157.913 28.55V27.9317C157.913 27.3688 157.83 27.3134 156.984 27.3134H156.054V33.4881V39.6626H156.984H157.913V37.2558V34.8489L158.389 35.4665C159.258 36.5949 161.172 36.7304 162.614 35.7656C163.469 35.1929 164.031 33.8532 164.146 32.1123C164.334 29.2568 163.032 27.3584 160.731 27.1323C159.731 27.0343 159.528 27.1019 158.765 27.7865ZM194.503 27.5129C192.759 28.3466 191.919 30.1256 192.155 32.4829C192.438 35.3025 194.537 36.8979 197.199 36.3146C198.372 36.0577 199.303 35.3076 199.908 34.1335C200.452 33.0751 200.435 30.5625 199.874 29.3703C198.979 27.4649 196.44 26.5872 194.503 27.5129ZM205.445 27.3459C205.19 27.4865 204.746 27.884 204.459 28.2294L203.937 28.8572L203.936 28.0851C203.935 27.3616 203.884 27.3134 203.121 27.3134H202.308V33.4881V39.6626H203.121H203.935V37.2426V34.8227L204.634 35.5538C205.858 36.8328 207.93 36.7225 209.199 35.311C210.565 33.7918 210.797 30.6486 209.67 28.9397C208.619 27.3463 206.736 26.6361 205.445 27.3459ZM214.213 27.5792C211.726 28.8371 211.152 32.8988 213.144 35.1507C214.887 37.1226 218.332 36.805 219.367 34.5765C219.871 33.4909 219.869 33.4881 218.81 33.4881C218.155 33.4881 217.88 33.5891 217.88 33.8307C217.88 34.7152 215.69 35.2747 214.837 34.6084C213.777 33.7821 213.391 31.6089 214.027 30.0526C214.698 28.4117 216.703 28.0946 217.7 29.4714C218.081 29.9984 218.388 30.1631 218.986 30.1631C219.691 30.1631 219.755 30.1091 219.615 29.6289C219.32 28.6184 218.772 27.9853 217.804 27.5363C216.535 26.9474 215.436 26.9606 214.213 27.5792ZM232.05 27.6102C230.568 28.3735 229.847 29.7686 229.863 31.844C229.885 34.7507 231.451 36.4441 234.091 36.4165C236.298 36.3931 237.812 34.8183 238.047 32.299C238.255 30.1066 237.364 28.3075 235.679 27.5261C234.415 26.9388 233.302 26.9643 232.05 27.6102ZM241.936 27.5497C238.869 29.1123 238.848 34.4099 241.906 36.0273C242.982 36.5963 245.088 36.5159 246.115 35.8666C247.503 34.9909 247.776 34.0853 246.724 33.8495C246.194 33.7302 245.926 33.8263 245.459 34.3056C245.014 34.7602 244.622 34.913 243.908 34.913C242.711 34.913 242.153 34.6137 241.706 33.7302C240.996 32.3249 241.045 32.3009 244.493 32.3009H247.631V31.2822C247.631 28.1778 244.603 26.1922 241.936 27.5497ZM128.627 31.8401V36.3665L129.499 36.2928L130.37 36.2191L130.438 34.3786L130.506 32.5383H132.356H134.206V34.4381V36.338H135.019H135.833V31.8255V27.3134H135.019H134.206V29.0947V30.8757H132.346H130.486V29.0947V27.3134H129.557H128.627V31.8401ZM146.757 28.0258V28.7384H148.267H149.778V32.5383V36.338H150.592H151.405V32.5383V28.7384H152.8H154.194V28.0258V27.3134H150.476H146.757V28.0258ZM166.786 31.8561C168.23 35.9546 168.366 36.4927 168.119 37.102C167.811 37.8635 167.114 38.3416 166.604 38.1417C166.294 38.0205 165.816 38.8089 165.816 39.4409C165.816 39.7953 167.633 39.6973 168.381 39.3023C169.272 38.8316 169.464 38.4202 171.615 32.3928L173.437 27.2884L172.489 27.3605L171.541 27.4323L170.486 30.6978C169.906 32.4938 169.373 33.963 169.303 33.963C169.232 33.963 168.699 32.4938 168.119 30.6978L167.064 27.4323L166.121 27.3607L165.178 27.2889L166.786 31.8561ZM175.113 31.8255V36.338H175.927H176.74V34.5568V32.7758H177.392C177.935 32.7758 178.255 33.0718 179.31 34.55C180.538 36.2724 180.604 36.3248 181.563 36.3313C182.106 36.3348 182.551 36.2717 182.551 36.1907C182.551 36.1096 181.808 35.0463 180.9 33.8277L179.248 31.6119L180.708 29.7595C181.511 28.7409 182.267 27.7737 182.388 27.6102C182.556 27.3832 182.357 27.3134 181.543 27.3134C180.486 27.3134 180.466 27.3283 179.029 29.2221C177.188 31.6494 176.88 31.6397 176.789 29.1514L176.721 27.3134H175.917H175.113V31.8255ZM183.481 28.0258V28.7384H184.992H186.502V32.5383V36.338H187.316H188.129V32.5383V28.7384H189.64H191.151V28.0258V27.3134H187.316H183.481V28.0258ZM221.599 31.8255V36.338H222.413H223.226V34.5568V32.7758H223.879C224.42 32.7758 224.74 33.0718 225.795 34.55C227.023 36.2724 227.09 36.3248 228.05 36.3313C228.593 36.3348 229.038 36.2659 229.038 36.1779C229.038 36.0897 228.293 35.0256 227.388 33.8131L225.737 31.6089L227.195 29.7581C227.998 28.74 228.754 27.7737 228.875 27.6102C229.043 27.3834 228.844 27.3134 228.034 27.3134C226.985 27.3134 226.963 27.3306 225.529 29.2235C223.682 31.6622 223.367 31.6522 223.275 29.1514L223.207 27.3134H222.403H221.599V31.8255ZM124.345 29.3344C124.972 30.0382 125.177 30.3709 125.095 32.0507C124.821 33.6394 124.714 33.8356 124.134 34.3448C123.497 34.9045 122.37 35.0877 121.547 34.765C120.982 34.5433 120.26 33.3429 120.26 31.8704C120.26 30.4893 120.699 29.4612 121.51 28.9441C122.466 28.3358 123.492 28.3768 124.345 29.3344ZM161.577 29.2749C162.788 30.43 162.721 33.4272 161.461 34.4398C160.82 34.9547 159.77 35.0551 159.063 34.6684C157.87 34.0163 157.459 30.8168 158.41 29.5819C159.32 28.4002 160.536 28.282 161.577 29.2749ZM197.615 29.0368C198.942 30.1617 198.84 33.9021 197.461 34.6566C196.868 34.9809 195.672 34.9869 195.089 34.6684C194.367 34.2737 193.94 33.1448 193.94 31.632C193.94 30.1253 194.438 29.1498 195.425 28.7245C196.016 28.4699 197.134 28.6293 197.615 29.0368ZM207.611 29.0507C208.955 30.1355 208.851 33.8935 207.456 34.6566C206.722 35.0576 205.682 34.9592 205.017 34.4252C203.888 33.5178 203.643 30.7564 204.583 29.5207C205.302 28.5741 206.743 28.3503 207.611 29.0507ZM234.716 28.7324C236.54 29.4415 236.813 33.7279 235.094 34.6684C234.51 34.9869 233.314 34.9809 232.721 34.6566C231.605 34.0459 231.216 31.1546 232.062 29.7394C232.719 28.6381 233.608 28.3012 234.716 28.7324ZM245.051 29.154C245.427 29.5133 245.802 30.0475 245.886 30.3415C246.033 30.8703 246.012 30.8757 243.696 30.8757C241.12 30.8757 240.947 30.7561 241.852 29.5819C242.795 28.3575 244.046 28.1903 245.051 29.154Z" fill="white"/>
    <path fill-rule="evenodd" clip-rule="evenodd" d="M108.888 49.5093V55.5936L111.859 55.4993C115.112 55.3958 115.918 55.1229 116.884 53.7985C117.564 52.8672 117.564 50.845 116.884 49.9142C116.021 48.7311 115.047 48.3269 112.797 48.2171L110.748 48.1168V46.4836V44.8499H113.537H116.327V44.1373V43.4247H112.608H108.888V49.5093ZM118.885 50.9062V55.5378H119.699H120.512V53.6377V51.7376H121.532C122.513 51.7376 122.559 51.7698 122.704 52.5621C122.881 53.5235 123.776 54.695 124.713 55.1898C125.695 55.7085 127.606 55.6332 128.649 55.0346C130.871 53.7584 131.404 49.8171 129.642 47.6785C128.467 46.2514 126.396 45.8641 124.691 46.753C123.689 47.2754 123.173 47.9409 122.714 49.3052C122.439 50.1243 122.346 50.1938 121.522 50.1938H120.628L120.561 48.2342L120.493 46.2748H119.689H118.885V50.9062ZM132.834 52.5688V58.8628H133.648H134.461L134.467 56.4283C134.472 54.0841 134.487 54.0125 134.874 54.5006C135.781 55.6446 137.672 55.8978 139.009 55.0536C141.033 53.776 141.455 49.3858 139.735 47.4994C138.416 46.052 136.578 45.8509 135.283 47.012L134.461 47.7491V47.012C134.461 46.3279 134.403 46.2748 133.648 46.2748H132.834V52.5688ZM144.796 46.6089C141.704 47.9845 141.566 53.707 144.589 55.1724C145.542 55.6346 147.536 55.6436 148.395 55.1898C151.421 53.5914 151.38 48.1427 148.331 46.6645C147.37 46.1986 145.775 46.1734 144.796 46.6089ZM128.091 48.5073C128.819 49.2505 128.882 49.431 128.882 50.7758C128.882 52.9777 128.139 54.1126 126.699 54.1126C125.151 54.1126 124.231 52.9036 124.233 50.8703C124.235 48.1288 126.414 46.794 128.091 48.5073ZM138.122 48.2231C139.485 49.3775 139.364 52.693 137.922 53.725C136.125 55.0112 134.284 53.2179 134.512 50.4037C134.607 49.238 134.731 48.9461 135.388 48.3466C136.02 47.7697 136.292 47.6713 136.955 47.7815C137.397 47.8545 137.922 48.0531 138.122 48.2231ZM147.663 48.0707C148.42 48.6125 148.876 49.667 148.876 50.8791C148.876 52.8651 148.001 54.1126 146.608 54.1126C144.959 54.1126 144.226 53.0856 144.226 50.7758C144.226 49.431 144.289 49.2505 145.017 48.5073C145.898 47.6066 146.806 47.4572 147.663 48.0707ZM115.059 50.4206C115.859 51.2377 115.818 52.295 114.95 53.1809C114.319 53.8258 114.146 53.8751 112.509 53.8751H110.748V51.8562V49.8375H112.618C114.294 49.8375 114.548 49.898 115.059 50.4206Z" fill="white"/>
    <path d="M100.396 0.19574H101.443V59.7978H100.398L100.396 0.19574Z" fill="white" stroke="white" stroke-width="0.1"/>
    <path fill-rule="evenodd" clip-rule="evenodd" d="M78.1956 5.17645C77.6721 4.79956 77.2435 4.54015 77.1497 4.53415C75.6857 4.46152 74.7275 4.32072 73.512 4.03759L73.3854 6.26653L73.1717 10.0289C73.6632 10.4579 74.194 10.8745 74.7327 11.2311C76.9019 12.6673 78.4527 13.1256 80.9838 13.6601C80.9838 13.6601 81.0631 14.7889 80.9478 15.9576L83.4978 16.1094C83.611 14.6688 83.6399 13.4579 83.6399 13.4579C83.8613 13.4024 84.1096 13.3194 84.3744 13.217L80.3662 12.9784L79.14 11.5528L77.914 10.1272L78.1956 5.17645ZM85.273 12.8288L80.639 12.553L79.499 11.2217L78.3591 9.89032L78.6097 5.48484C79.2996 6.01571 80.0417 6.67418 80.3772 7.20091C81.1144 6.16228 82.8371 5.18087 82.8371 5.18087C85.2238 5.39597 86.0128 5.36901 87.9691 4.96314L87.9782 4.96128C89.0985 4.72881 89.7508 4.59345 90.7741 4.10055C91.3883 3.80458 91.7544 3.46624 92.134 3.11553C92.5101 2.76786 92.8992 2.40804 93.5566 2.06532C93.6049 2.99377 93.3488 4.33142 93.3488 4.33142C93.3488 4.33142 93.111 6.03415 92.6241 7.00511C92.1573 7.93587 91.7264 8.38094 90.9901 9.13427C90.1864 9.9565 88.6638 10.9684 88.6638 10.9684C88.6638 10.9684 86.8928 12.069 85.273 12.8288ZM83.3735 17.427L80.7113 17.2685C80.6863 17.3525 80.6595 17.4341 80.6306 17.5125C80.2582 18.522 79.8975 19.0463 79.2135 19.8911C78.6692 20.5629 78.207 21.0329 77.6583 21.5036L79.6213 21.6204L80.1203 21.1799C80.5501 20.8004 80.6712 20.7617 80.9917 20.9005C81.5099 21.1248 81.9114 21.7871 81.7656 22.1771C81.5978 22.6257 81.0645 23.0314 80.6735 23.0081C80.4875 22.997 80.1891 22.82 80.0107 22.6147C79.7009 22.2585 79.5861 22.2333 77.4945 22.0615L77.0228 22.0228C76.9047 22.1154 76.7815 22.2107 76.6523 22.3098C76.457 22.4598 76.279 22.5979 76.1122 22.7273C75.636 23.0965 75.2525 23.3942 74.8197 23.6903L76.0854 23.7656L78.124 26.0954L79.6745 27.8669C79.7928 27.6825 79.9048 27.5013 80.0069 27.3278C80.9264 25.7666 81.4173 24.8171 81.9975 23.1106C82.5446 21.5007 82.8033 20.7084 83.1204 19.1232C83.2232 18.6095 83.3063 18.0232 83.3735 17.427ZM78.9053 29.0048L77.5682 27.4976L75.5341 25.2049L72.8273 25.0439L72.4816 25.0232C71.5497 25.4627 70.7598 25.7113 69.565 26.0873C69.2552 26.1846 68.9183 26.2907 68.5448 26.4109C66.7759 26.9792 64.06 26.9307 64.06 26.9307C64.06 26.9307 61.811 27.0153 60.3011 27.0489C60.5241 27.4388 60.5146 27.8361 60.2736 28.2517C59.9469 28.8151 59.5496 28.9962 58.8471 28.9019C58.3085 28.8299 58.2203 28.8834 56.8795 30.0991L55.4757 31.3724L50.7329 31.09L45.9899 30.8076L45.1603 29.8142L44.3306 28.8204L44.438 26.9314L44.4795 26.2008C43.0202 26.0731 41.538 25.9452 40.0404 25.828C40.0372 25.8864 40.0339 25.9469 40.0302 26.0092L39.9254 27.8703L41.3024 29.4663C42.5165 30.8731 42.7253 31.055 43.0654 30.9992C43.5708 30.9169 44.3159 31.6038 44.2865 32.1246C44.2606 32.5807 43.6237 33.1712 43.1921 33.1392C42.5722 33.0936 42.045 32.3263 42.2221 31.7275C42.3016 31.4576 42.065 31.108 40.8976 29.7714L39.4766 28.1437L39.5827 26.2761C39.5925 26.1005 39.6011 25.9404 39.6081 25.7942C37.1316 25.5938 34.6341 25.2403 32.1632 24.891C30.3932 24.6405 28.6369 24.392 26.9116 24.2032C23.9144 23.8008 21.3111 23.5677 18.9021 23.3518C16.8722 23.1702 14.9803 23.0007 13.1071 22.7528C9.74878 22.3905 6.75763 22.2992 4.78343 22.3198C4.70262 22.3206 4.62339 22.3218 4.54572 22.3231L6.54561 24.6329L7.90212 26.1869L21.3647 26.99L34.8271 27.7934L37.5924 30.9725L40.3577 34.1514L47.3773 34.57L54.3969 34.9888L56.083 33.4744L57.7688 31.9596L64.0694 32.3368L70.3704 32.7134L70.7218 32.2165C71.2061 31.5329 71.8477 31.2646 72.6579 31.4071C74.2029 31.6788 74.6641 33.6422 73.4169 34.6374C72.9978 34.9721 72.7585 35.0511 72.2552 35.021C71.3645 34.9682 70.9754 34.7108 70.6343 33.9489L70.338 33.2875L64.0969 32.9161L57.8559 32.5446L56.1915 34.0649L54.5271 35.5853L47.3519 35.1581L40.1767 34.7312L37.4296 31.5496L34.6824 28.368L21.2072 27.5657L7.73174 26.7637L6.39597 25.212L4.01414 22.3371C2.53499 22.3903 1.72906 22.5481 1.46609 22.747L1.4525 22.7573C1.14263 22.9915 0.536516 23.4496 0.295314 24.108C0.20114 24.3649 0.123113 24.6663 0.0620098 24.982L4.7199 25.2593L6.36051 27.1237L8.00111 28.9881L20.6788 29.7426L33.3566 30.4971L36.403 33.9869L39.4495 37.4764L48.0404 37.9909C52.7657 38.2737 56.6499 38.5235 56.6718 38.5457C56.6938 38.568 57.4704 39.4432 58.3978 40.4903L60.0837 42.3941L63.0911 42.5731C63.6401 42.3357 64.2003 42.0727 64.896 41.7044C66.0364 41.1007 67.4924 40.1546 68.4228 39.531C68.2455 39.1629 67.8615 38.7266 67.3342 38.1271V38.1269L67.3337 38.1266C67.1553 37.9237 66.9602 37.702 66.7514 37.4581L65.5851 36.0964L63.5214 35.9736L61.4576 35.8508L61.0306 36.2669C60.5125 36.7724 60.0977 36.7719 59.6574 36.2655C59.23 35.7746 59.2669 35.217 59.7559 34.7717C60.2215 34.3478 60.7579 34.4453 61.1785 35.0305C61.4452 35.4016 61.4898 35.4109 63.6266 35.5381L65.8028 35.6676L67.0398 37.0612L68.2767 38.4549L68.9321 39.1863C69.1927 39.0083 69.3476 38.8999 69.3476 38.8999C69.3476 38.8999 72.5173 36.5008 73.5176 35.4808C74.5178 34.4608 76.6682 31.9548 77.547 30.837C77.547 30.837 78.204 29.9981 78.9053 29.0048ZM59.0392 44.2212L57.3778 42.3065L55.6936 40.3661L47.0857 39.8537L38.4776 39.3412L35.5086 35.9256L32.5396 32.5098L19.8368 31.7539L7.13397 30.9975L5.50758 29.1343L3.88116 27.2706L-0.0979156 27.0338C-0.092885 27.7269 -0.0692753 28.3036 0.0333722 28.9557L3.67047 29.172L5.46733 31.2665L7.26406 33.3609L19.5358 34.0916L31.8075 34.8218L35.0501 38.5483L38.2928 42.2747L46.4532 42.7605L54.6141 43.2463L56.1404 45.0169C57.1095 44.795 58.0528 44.5626 59.0392 44.2212ZM55.6012 45.1388L54.3318 43.6784L46.1712 43.1931L38.0105 42.7073L34.7632 38.9768L31.5158 35.2462L19.2383 34.5155L6.96068 33.7846L5.2187 31.7646L3.47687 29.7445L0.144078 29.5462C0.155791 29.6004 0.168068 29.6555 0.180931 29.7114C0.350861 30.4497 0.466395 30.932 0.698131 31.4977L2.73355 31.6188L4.76458 33.9484L6.79562 36.2775L9.6181 36.4455L12.4407 36.6137L13.7585 38.1227L15.0761 39.6315L18.1942 39.8657C19.9091 39.9945 21.4486 40.0735 21.6152 40.0408C21.7817 40.0086 22.002 39.8194 22.1046 39.6204C22.1235 39.5838 22.1465 39.534 22.1731 39.4761C22.2914 39.2189 22.4813 38.8059 22.7013 38.7144C23.1452 38.5293 23.9307 38.6092 24.3994 38.8432C25.3084 39.297 25.2561 41.1931 24.3994 41.7435C23.7569 42.1561 22.6233 41.9893 22.1046 41.3569L21.81 40.5574L18.32 40.3499L14.8299 40.1419L13.4847 38.5897L12.1395 37.0371L9.30753 36.8687L6.4756 36.7001L4.6854 34.5968C3.70075 33.4399 2.78765 32.4234 2.65609 32.3381C2.6074 32.3066 2.03384 32.2476 1.00597 32.1658C1.01364 32.1811 1.0214 32.1964 1.02925 32.2119C1.58463 33.3014 2.18624 34.4639 3.03978 35.511C3.32453 35.8075 3.56676 36.0716 3.7968 36.3222C4.34324 36.9181 4.82078 37.4388 5.63533 38.141C6.41932 38.8168 6.95456 39.2481 7.7843 39.8722C8.77383 40.6161 8.92641 40.7247 10.4461 41.5814C10.744 41.7493 10.9975 41.893 11.2223 42.0204C12.144 42.5428 12.583 42.7918 13.6252 43.3175C15.4651 44.2462 17.821 45.0734 17.821 45.0734C17.821 45.0734 20.1486 45.9489 21.7109 46.2151C21.7109 46.2151 22.6839 47.6627 23.1615 48.4415C23.7315 49.3712 24.6283 50.7468 25.345 51.5796C26.4427 52.8554 27.9001 53.8371 29.3282 54.767C30.4821 55.5181 31.4622 55.9364 32.5459 56.3988C33.0024 56.5937 33.4774 56.7964 33.9912 57.035C35.544 57.7561 38.3308 57.8008 38.3308 57.8008C38.3308 57.8008 36.5409 55.2025 35.6152 53.4253C35.5475 53.2951 35.4817 53.1697 35.4183 53.0481C34.7305 51.733 34.2835 50.8779 33.8292 49.3675C33.505 48.2877 33.225 46.5526 33.225 46.5526C33.225 46.5526 36.4733 47.0185 38.5676 47.0652C41.8296 47.138 46.9457 46.6341 46.9457 46.6341C46.9457 46.6341 51.2053 46.1768 54.3475 45.4272C54.762 45.328 55.1656 45.237 55.5625 45.1476C55.5756 45.1448 55.5884 45.1418 55.6012 45.1388ZM44.909 26.2383L44.8679 26.9599L44.7739 28.6105L45.5151 29.4517L46.2561 30.2931L50.739 30.5817L55.2219 30.8706L56.6133 29.6337C57.8619 28.5239 57.9935 28.3601 57.8948 28.0392C57.791 27.7019 57.8197 27.3843 57.9356 27.1156C57.5558 27.1149 57.1137 27.0982 56.4047 27.0521C55.8128 27.0134 55.0572 26.9771 54.2978 26.9402C53.5029 26.902 52.7038 26.8636 52.0837 26.8219C49.8781 26.6743 47.5738 26.472 45.2048 26.2642C45.1066 26.2559 45.0077 26.2471 44.909 26.2383ZM71.8071 8.71091L71.9375 6.41488L72.0989 3.57811C71.57 3.22437 70.3062 2.40915 69.3427 2.02652C69.3427 2.02652 69.4365 3.96971 69.741 5.24734C70.0515 6.22293 70.2971 6.63477 70.7012 7.3125C70.7225 7.34796 70.7439 7.38413 70.7661 7.42114C70.9404 7.71378 71.3113 8.18009 71.8071 8.71091ZM24.0842 41.0131C24.3203 40.6184 24.4549 39.7263 24.2102 39.4446C23.9209 39.1124 23.0658 39.3954 22.7013 39.7272C22.3361 40.0598 22.3437 40.5644 22.6143 41.0131C22.8771 41.4486 23.8516 41.4016 24.0842 41.0131Z" fill="white"/>
    </g>
    <defs>
    <clipPath id="clip0_17_24">
    <rect width="248" height="60" fill="white"/>
    </clipPath>
    </defs>
    </svg>
    