<svg width="247" height="60" viewBox="0 0 247 60" fill="none" xmlns="http://www.w3.org/2000/svg">
<g clip-path="url(#clip0_489_2)">
<path fill-rule="evenodd" clip-rule="evenodd" d="M112.227 4.81694C108.587 5.73205 106.948 10.3022 108.828 14.2968C110.541 17.9354 115.95 18.0993 117.708 14.5657C118.341 13.2931 118.298 13.1449 117.299 13.1449C116.561 13.1449 116.384 13.2497 116.13 13.8372C115.685 14.8692 114.775 15.3784 113.37 15.3815C111.89 15.3848 111.096 14.858 110.337 13.3684C109.883 12.4773 109.814 12.0509 109.895 10.6211C110.055 7.79885 111.193 6.4947 113.495 6.4947C114.774 6.4947 115.63 7.02552 116.211 8.17815C116.495 8.74055 116.71 8.86975 117.364 8.86975C118.386 8.86975 118.418 8.41588 117.5 6.9317C116.49 5.29743 114.111 4.34336 112.227 4.81694ZM150.354 7.95985C149.459 8.21924 148.394 9.14028 147.925 10.0604C147.129 11.6218 147.313 14.1405 148.329 15.6048C148.924 16.4624 150.419 17.1721 151.628 17.1721C153.241 17.1721 155.217 15.9211 155.217 14.9003C155.217 14.7483 154.886 14.574 154.482 14.5132C153.899 14.4255 153.639 14.5308 153.228 15.0207C152.808 15.5223 152.506 15.6387 151.629 15.6387C150.7 15.6387 150.453 15.5292 149.872 14.863C149.501 14.4364 149.197 13.822 149.197 13.4974V12.9074H152.323H155.449V12.3001C155.449 10.1559 154.294 8.44414 152.503 7.93398C151.492 7.64612 151.434 7.64683 150.354 7.95985ZM178.488 8.03755C175.616 9.07474 174.864 13.9664 177.242 16.1439C178.963 17.7198 182.589 17.2811 183.426 15.396C183.785 14.5894 183.814 14.6357 182.872 14.5229C182.252 14.4488 181.991 14.5291 181.826 14.845C181.705 15.0763 181.202 15.39 180.706 15.5423C179.449 15.9287 178.139 15.2848 177.761 14.0949C177.615 13.6377 177.543 13.1836 177.6 13.0855C177.658 12.9874 179.114 12.9074 180.838 12.9074H183.97L183.818 11.898C183.452 9.47232 182.698 8.42253 180.97 7.93018C179.875 7.61834 179.618 7.62927 178.488 8.03755ZM188.157 7.94753C187.132 8.25105 185.939 9.53382 185.599 10.6957C184.593 14.14 186.476 17.1825 189.614 17.1825C190.601 17.1825 192.233 16.2726 192.619 15.5074C193.165 14.4239 193.065 14.0949 192.187 14.0949C191.589 14.0949 191.354 14.2282 191.153 14.682C190.862 15.3366 190.17 15.5934 189.005 15.4782C187.886 15.3675 187.171 14.2078 187.171 12.5041C187.171 10.3675 187.947 9.34479 189.567 9.34479C190.177 9.34479 190.513 9.51721 190.956 10.0573C191.687 10.9484 192.96 11.0843 192.96 10.2711C192.96 9.55569 191.59 8.25082 190.518 7.94563C189.459 7.64398 189.181 7.64422 188.157 7.94753ZM205.854 8.02636C204.713 8.44344 204.196 8.93841 203.617 10.1637C202.729 12.0459 203.177 14.8725 204.565 16.1439C205.324 16.8393 206.732 17.2618 207.8 17.1148C210.381 16.7598 211.848 14.1968 211.212 11.1524C210.903 9.67113 209.71 8.33347 208.353 7.94704C207.199 7.61857 206.947 7.6264 205.854 8.02636ZM215.864 7.90928C214.76 8.25223 214.058 8.90039 213.464 10.1238C212.156 12.8145 213.107 15.8874 215.543 16.8415C217.361 17.5537 219.839 16.8275 220.475 15.396C220.831 14.5946 220.855 14.6402 220.001 14.5118C219.422 14.4243 219.164 14.5198 218.841 14.9417C217.621 16.5317 214.726 15.443 214.726 13.3943C214.726 12.9273 214.855 12.9074 217.882 12.9074H221.038L220.879 11.6828C220.614 9.63337 219.89 8.61823 218.272 8.02636C217.281 7.6637 216.738 7.63734 215.864 7.90928ZM119.79 8.63225V9.34479H121.179H122.568V13.1449V16.945H123.373H124.177L124.241 13.2043L124.305 9.46354L125.752 9.39277C127.185 9.32292 127.199 9.31509 127.199 8.62085V7.91973H123.494H119.79V8.63225ZM128.357 8.01093C128.357 8.06107 129.051 10.0651 129.9 12.4642C130.749 14.8633 131.432 17.0231 131.418 17.2635C131.37 18.0964 130.697 18.8451 129.997 18.8451C129.352 18.8451 129.052 19.1911 129.052 19.9333C129.052 20.177 129.356 20.2699 130.152 20.2689C132.047 20.2668 132.296 19.9018 134.355 14.0949C136.809 7.17656 136.659 7.91973 135.603 7.91973H134.713L133.602 11.3636C132.992 13.2577 132.453 14.8075 132.405 14.8075C132.357 14.8075 131.84 13.2577 131.255 11.3636L130.193 7.91973H129.275C128.77 7.91973 128.357 7.96083 128.357 8.01093ZM138.688 9.04789C138.616 9.66826 138.491 10.9242 138.41 11.8386C138.225 13.9432 137.595 15.5199 136.937 15.5199C136.494 15.5199 136.461 15.6598 136.461 17.5388V19.5576H137.387H138.314V18.2513V16.945H141.324H144.334V18.2513V19.5576H145.26H146.187V17.5388V15.5199H145.492H144.797V11.7198V7.91973H141.809H138.821L138.688 9.04789ZM157.301 12.4324V16.945H158.102H158.903L158.97 15.1043L159.038 13.2637L160.948 13.1948L162.858 13.1257V15.0355V16.945H163.669H164.479V12.4324V7.91973H163.669H162.858V9.82931V11.7391L160.948 11.67L159.038 11.6011L158.97 9.76041L158.903 7.91973H158.102H157.301V12.4324ZM166.795 9.70863C166.795 12.9756 167.753 14.0925 170.557 14.094L172.12 14.0949V15.5199V16.945H173.047H173.973V12.4324V7.91973H173.047H172.12V10.1506C172.12 12.6281 172.093 12.6699 170.506 12.6699C169.985 12.6699 169.402 12.4853 169.081 12.2181C168.607 11.8248 168.526 11.5175 168.451 9.84307L168.366 7.91973H167.581H166.795V9.70863ZM194.812 12.4324V16.945H195.739H196.665V15.1637C196.665 13.443 196.684 13.3824 197.219 13.3824C197.636 13.3824 198.102 13.823 199.104 15.1637C200.41 16.9127 200.453 16.945 201.472 16.945C202.267 16.945 202.458 16.8754 202.288 16.6481C199.78 13.2974 199.162 12.3321 199.35 12.0559C199.465 11.8863 200.217 10.8864 201.021 9.83357L202.483 7.91973H201.443C200.419 7.91973 200.379 7.94943 198.939 9.81932C197.002 12.3326 196.665 12.3329 196.665 9.81978V7.91973H195.739H194.812V12.4324ZM143.06 12.4324V15.4012L141.122 15.4706C139.336 15.5347 139.196 15.5067 139.351 15.1143C139.727 14.164 139.902 13.3301 140.049 11.792C140.293 9.23908 140.241 9.31175 141.748 9.393L143.06 9.46354V12.4324ZM153.028 9.92785C153.34 10.2485 153.596 10.7829 153.596 11.1154V11.7198H151.397C149.324 11.7198 149.197 11.6914 149.197 11.2265C149.197 10.9553 149.501 10.4209 149.873 10.039C150.774 9.11512 152.187 9.06524 153.028 9.92785ZM181.171 9.64926C181.626 10.0077 182.077 10.8529 182.077 11.3479C182.077 11.6593 181.719 11.7198 179.877 11.7198C177.767 11.7198 177.678 11.6987 177.678 11.1985C177.678 10.9116 177.958 10.3772 178.3 10.011C178.785 9.49108 179.129 9.34643 179.863 9.35239C180.38 9.35642 180.969 9.49013 181.171 9.64926ZM208.496 9.64926C209.539 10.4654 209.937 12.6478 209.32 14.1619C208.882 15.2373 208.381 15.5848 207.27 15.5848C206.472 15.5848 206.085 15.5057 205.527 14.8646C204.885 14.1279 204.814 13.8757 204.814 12.2642C205.01 10.6343 205.194 10.4224 205.772 9.91289C206.483 9.28541 207.861 9.15191 208.496 9.64926ZM218.557 9.92785C218.87 10.2485 219.125 10.7829 219.125 11.1154V11.7198H216.926C214.853 11.7198 214.726 11.6914 214.726 11.2265C214.726 10.9553 215.03 10.4209 215.403 10.039C216.303 9.11512 217.716 9.06524 218.557 9.92785Z" fill="black"/>
<path fill-rule="evenodd" clip-rule="evenodd" d="M108.432 30.2963V36.3665L109.3 36.2928L110.168 36.2191L110.233 33.5474C110.298 30.8882 110.301 30.8757 110.866 30.8757C111.32 30.8757 111.835 31.424 113.433 33.6067L115.433 36.338H116.46C117.673 36.338 117.79 36.6283 115.094 32.9532C113.968 31.4185 112.986 30.0012 112.912 29.8036C112.826 29.5717 113.463 28.6703 114.717 27.2511C117.584 24.0076 117.475 24.2261 116.234 24.2261C115.19 24.2261 115.169 24.2421 113.04 26.7199C111.861 28.0911 110.759 29.2133 110.59 29.2133C110.355 29.2133 110.284 28.63 110.284 26.7199V24.2261H109.358H108.432V30.2963ZM120.289 27.5655C118.552 28.4715 117.689 30.6815 118.171 32.9868C118.626 35.1665 120.107 36.4056 122.255 36.4056C123.703 36.4056 125.097 35.5909 125.702 34.3902C126.328 33.149 126.397 30.9139 125.85 29.6439C124.877 27.3878 122.404 26.4632 120.289 27.5655ZM139.795 27.407C138.814 27.8451 137.651 29.2839 137.468 30.2849C136.821 33.8231 138.488 36.4056 141.419 36.4056C142.846 36.4056 143.953 35.8536 144.554 34.8419C145.186 33.7791 145.129 33.4881 144.29 33.4881C143.792 33.4881 143.375 33.7052 142.924 34.2007C141.728 35.5147 139.803 34.9436 139.21 33.0985C138.883 32.0819 139.061 30.3957 139.582 29.5798C140.385 28.3228 142.258 28.3119 143.054 29.5589C143.346 30.0155 143.638 30.1631 144.249 30.1631C145.015 30.1631 145.049 30.1288 144.9 29.5103C144.436 27.5917 141.805 26.5082 139.795 27.407ZM158.124 27.7865L157.277 28.55V27.9317C157.277 27.3688 157.194 27.3134 156.351 27.3134H155.425V33.4881V39.6626H156.351H157.277V37.2558V34.8489L157.75 35.4665C158.615 36.5949 160.523 36.7304 161.958 35.7656C162.81 35.1929 163.369 33.8532 163.484 32.1123C163.672 29.2568 162.375 27.3584 160.083 27.1323C159.087 27.0343 158.884 27.1019 158.124 27.7865ZM193.718 27.5129C191.982 28.3466 191.145 30.1256 191.38 32.4829C191.662 35.3025 193.753 36.8979 196.404 36.3146C197.572 36.0577 198.499 35.3076 199.102 34.1335C199.644 33.0751 199.627 30.5625 199.068 29.3703C198.176 27.4649 195.647 26.5872 193.718 27.5129ZM204.617 27.3459C204.362 27.4865 203.92 27.884 203.634 28.2294L203.115 28.8572L203.113 28.0851C203.112 27.3616 203.061 27.3134 202.302 27.3134H201.492V33.4881V39.6626H202.302H203.112V37.2426V34.8227L203.809 35.5538C205.028 36.8328 207.092 36.7225 208.356 35.311C209.716 33.7918 209.947 30.6486 208.824 28.9397C207.778 27.3463 205.903 26.6361 204.617 27.3459ZM213.349 27.5792C210.872 28.8371 210.301 32.8988 212.284 35.1507C214.021 37.1226 217.451 36.805 218.482 34.5765C218.984 33.4909 218.982 33.4881 217.928 33.4881C217.275 33.4881 217.002 33.5891 217.002 33.8307C217.002 34.7152 214.821 35.2747 213.97 34.6084C212.915 33.7821 212.53 31.6089 213.164 30.0526C213.832 28.4117 215.83 28.0946 216.822 29.4714C217.201 29.9984 217.507 30.1631 218.103 30.1631C218.806 30.1631 218.869 30.1091 218.729 29.6289C218.435 28.6184 217.89 27.9853 216.926 27.5363C215.662 26.9474 214.568 26.9606 213.349 27.5792ZM231.115 27.6102C229.638 28.3735 228.921 29.7686 228.936 31.844C228.959 34.7507 230.518 36.4441 233.147 36.4165C235.345 36.3931 236.853 34.8183 237.088 32.299C237.294 30.1066 236.407 28.3075 234.729 27.5261C233.47 26.9388 232.361 26.9643 231.115 27.6102ZM240.961 27.5497C237.905 29.1123 237.884 34.4099 240.931 36.0273C242.002 36.5963 244.1 36.5159 245.123 35.8666C246.505 34.9909 246.777 34.0853 245.729 33.8495C245.202 33.7302 244.934 33.8263 244.47 34.3056C244.026 34.7602 243.635 34.913 242.924 34.913C241.732 34.913 241.177 34.6137 240.731 33.7302C240.025 32.3249 240.073 32.3009 243.508 32.3009H246.633V31.2822C246.633 28.1778 243.617 26.1922 240.961 27.5497ZM128.108 31.8401V36.3665L128.977 36.2928L129.845 36.2191L129.912 34.3786L129.98 32.5383H131.822H133.664V34.4381V36.338H134.475H135.285V31.8255V27.3134H134.475H133.664V29.0947V30.8757H131.813H129.96V29.0947V27.3134H129.035H128.108V31.8401ZM146.165 28.0258V28.7384H147.67H149.174V32.5383V36.338H149.985H150.795V32.5383V28.7384H152.184H153.573V28.0258V27.3134H149.869H146.165V28.0258ZM166.114 31.8561C167.551 35.9546 167.687 36.4927 167.441 37.102C167.134 37.8635 166.44 38.3416 165.932 38.1417C165.624 38.0205 165.147 38.8089 165.147 39.4409C165.147 39.7953 166.957 39.6973 167.702 39.3023C168.589 38.8316 168.781 38.4202 170.923 32.3928L172.737 27.2884L171.793 27.3605L170.849 27.4323L169.798 30.6978C169.221 32.4938 168.69 33.963 168.62 33.963C168.55 33.963 168.019 32.4938 167.441 30.6978L166.391 27.4323L165.451 27.3607L164.512 27.2889L166.114 31.8561ZM174.407 31.8255V36.338H175.217H176.028V34.5568V32.7758H176.677C177.218 32.7758 177.536 33.0718 178.587 34.55C179.81 36.2724 179.876 36.3248 180.831 36.3313C181.372 36.3348 181.815 36.2717 181.815 36.1907C181.815 36.1096 181.075 35.0463 180.17 33.8277L178.525 31.6119L179.98 29.7595C180.78 28.7409 181.532 27.7737 181.653 27.6102C181.82 27.3832 181.622 27.3134 180.811 27.3134C179.758 27.3134 179.738 27.3283 178.308 29.2221C176.474 31.6494 176.167 31.6397 176.076 29.1514L176.008 27.3134H175.208H174.407V31.8255ZM182.741 28.0258V28.7384H184.246H185.75V32.5383V36.338H186.561H187.371V32.5383V28.7384H188.875H190.38V28.0258V27.3134H186.561H182.741V28.0258ZM220.706 31.8255V36.338H221.516H222.326V34.5568V32.7758H222.976C223.515 32.7758 223.834 33.0718 224.885 34.55C226.108 36.2724 226.175 36.3248 227.13 36.3313C227.671 36.3348 228.115 36.2659 228.115 36.1779C228.115 36.0897 227.373 35.0256 226.471 33.8131L224.827 31.6089L226.279 29.7581C227.079 28.74 227.832 27.7737 227.952 27.6102C228.119 27.3834 227.921 27.3134 227.115 27.3134C226.07 27.3134 226.048 27.3306 224.62 29.2235C222.78 31.6622 222.466 31.6522 222.374 29.1514L222.307 27.3134H221.506H220.706V31.8255ZM123.844 29.3344C124.468 30.0382 124.673 30.3709 124.59 32.0507C124.318 33.6394 124.211 33.8356 123.634 34.3448C122.999 34.9045 121.877 35.0877 121.057 34.765C120.494 34.5433 119.775 33.3429 119.775 31.8704C119.775 30.4893 120.213 29.4612 121.02 28.9441C121.972 28.3358 122.994 28.3768 123.844 29.3344ZM160.925 29.2749C162.131 30.43 162.065 33.4272 160.81 34.4398C160.172 34.9547 159.125 35.0551 158.421 34.6684C157.233 34.0163 156.825 30.8168 157.772 29.5819C158.678 28.4002 159.889 28.282 160.925 29.2749ZM196.818 29.0368C198.14 30.1617 198.039 33.9021 196.665 34.6566C196.074 34.9809 194.883 34.9869 194.303 34.6684C193.584 34.2737 193.158 33.1448 193.158 31.632C193.158 30.1253 193.654 29.1498 194.637 28.7245C195.225 28.4699 196.339 28.6293 196.818 29.0368ZM206.774 29.0507C208.113 30.1355 208.009 33.8935 206.619 34.6566C205.889 35.0576 204.852 34.9592 204.191 34.4252C203.066 33.5178 202.822 30.7564 203.758 29.5207C204.474 28.5741 205.909 28.3503 206.774 29.0507ZM233.769 28.7324C235.586 29.4415 235.858 33.7279 234.146 34.6684C233.565 34.9869 232.373 34.9809 231.783 34.6566C230.671 34.0459 230.284 31.1546 231.126 29.7394C231.781 28.6381 232.666 28.3012 233.769 28.7324ZM244.063 29.154C244.437 29.5133 244.811 30.0475 244.895 30.3415C245.041 30.8703 245.02 30.8757 242.713 30.8757C240.148 30.8757 239.976 30.7561 240.877 29.5819C241.816 28.3575 243.061 28.1903 244.063 29.154Z" fill="black"/>
<path fill-rule="evenodd" clip-rule="evenodd" d="M108.449 49.5093V55.5936L111.408 55.4993C114.648 55.3958 115.451 55.1229 116.413 53.7985C117.09 52.8672 117.09 50.845 116.413 49.9142C115.554 48.7311 114.583 48.3269 112.342 48.2171L110.301 48.1168V46.4836V44.8499H113.08H115.858V44.1373V43.4247H112.154H108.449V49.5093ZM118.406 50.9062V55.5378H119.216H120.026V53.6377V51.7376H121.042C122.019 51.7376 122.065 51.7698 122.209 52.5621C122.385 53.5235 123.277 54.695 124.21 55.1898C125.188 55.7085 127.091 55.6332 128.13 55.0346C130.344 53.7584 130.874 49.8171 129.119 47.6785C127.949 46.2514 125.887 45.8641 124.189 46.753C123.19 47.2754 122.677 47.9409 122.22 49.3052C121.945 50.1243 121.852 50.1938 121.032 50.1938H120.142L120.075 48.2342L120.007 46.2748H119.206H118.406V50.9062ZM132.298 52.5688V58.8628H133.109H133.919L133.924 56.4283C133.93 54.0841 133.945 54.0125 134.33 54.5006C135.234 55.6446 137.117 55.8978 138.449 55.0536C140.464 53.776 140.884 49.3858 139.172 47.4994C137.858 46.052 136.027 45.8509 134.738 47.012L133.919 47.7491V47.012C133.919 46.3279 133.861 46.2748 133.109 46.2748H132.298V52.5688ZM144.212 46.6089C141.133 47.9845 140.995 53.707 144.006 55.1724C144.956 55.6346 146.941 55.6436 147.797 55.1898C150.81 53.5914 150.769 48.1427 147.733 46.6645C146.775 46.1986 145.187 46.1734 144.212 46.6089ZM127.575 48.5073C128.299 49.2505 128.362 49.431 128.362 50.7758C128.362 52.9777 127.623 54.1126 126.188 54.1126C124.646 54.1126 123.731 52.9036 123.732 50.8703C123.734 48.1288 125.905 46.794 127.575 48.5073ZM137.565 48.2231C138.923 49.3775 138.802 52.693 137.366 53.725C135.576 55.0112 133.742 53.2179 133.97 50.4037C134.064 49.238 134.188 48.9461 134.842 48.3466C135.472 47.7697 135.743 47.6713 136.403 47.7815C136.843 47.8545 137.366 48.0531 137.565 48.2231ZM147.068 48.0707C147.822 48.6125 148.276 49.667 148.276 50.8791C148.276 52.8651 147.404 54.1126 146.017 54.1126C144.375 54.1126 143.645 53.0856 143.645 50.7758C143.645 49.431 143.707 49.2505 144.432 48.5073C145.31 47.6066 146.214 47.4572 147.068 48.0707ZM114.595 50.4206C115.392 51.2377 115.351 52.295 114.487 53.1809C113.858 53.8258 113.686 53.8751 112.056 53.8751H110.301V51.8562V49.8375H112.164C113.833 49.8375 114.086 49.898 114.595 50.4206Z" fill="black"/>
<path d="M99.9908 0.19574H101.034V59.7978H99.9927L99.9908 0.19574Z" fill="#11009E" stroke="#11009E" stroke-width="0.1"/>
<path fill-rule="evenodd" clip-rule="evenodd" d="M77.8803 5.17645C77.3588 4.79956 76.932 4.54015 76.8386 4.53415C75.3805 4.46152 74.4262 4.32072 73.2156 4.03759L73.0894 6.26653L72.8766 10.0289C73.3662 10.4579 73.8948 10.8745 74.4313 11.2311C76.5918 12.6673 78.1363 13.1256 80.6572 13.6601C80.6572 13.6601 80.7362 14.7889 80.6214 15.9576L83.1611 16.1094C83.2738 14.6688 83.3026 13.4579 83.3026 13.4579C83.5232 13.4024 83.7704 13.3194 84.0341 13.217L80.0422 12.9784L78.8209 11.5528L77.5998 10.1272L77.8803 5.17645ZM84.9292 12.8288L80.3138 12.553L79.1785 11.2217L78.0431 9.89032L78.2927 5.48484C78.9798 6.01571 79.7189 6.67418 80.0531 7.20091C80.7873 6.16228 82.5031 5.18087 82.5031 5.18087C84.8801 5.39597 85.666 5.36901 87.6143 4.96314L87.6234 4.96128C88.7392 4.72881 89.3889 4.59345 90.408 4.10055C91.0198 3.80458 91.3844 3.46624 91.7625 3.11553C92.137 2.76786 92.5246 2.40804 93.1794 2.06532C93.2275 2.99377 92.9724 4.33142 92.9724 4.33142C92.9724 4.33142 92.7356 6.03415 92.2506 7.00511C91.7857 7.93587 91.3565 8.38094 90.6232 9.13427C89.8227 9.9565 88.3063 10.9684 88.3063 10.9684C88.3063 10.9684 86.5425 12.069 84.9292 12.8288ZM83.0373 17.427L80.3858 17.2685C80.361 17.3525 80.3342 17.4341 80.3054 17.5125C79.9346 18.522 79.5753 19.0463 78.8941 19.8911C78.352 20.5629 77.8916 21.0329 77.3451 21.5036L79.3002 21.6204L79.7972 21.1799C80.2253 20.8004 80.3458 20.7617 80.6651 20.9005C81.1812 21.1248 81.5811 21.7871 81.4359 22.1771C81.2688 22.6257 80.7376 23.0314 80.3482 23.0081C80.163 22.997 79.8658 22.82 79.688 22.6147C79.3795 22.2585 79.2651 22.2333 77.182 22.0615L76.7122 22.0228C76.5946 22.1154 76.4719 22.2107 76.3432 22.3098C76.1487 22.4598 75.9714 22.5979 75.8053 22.7273C75.331 23.0965 74.949 23.3942 74.518 23.6903L75.7786 23.7656L77.8089 26.0954L79.3532 27.8669C79.471 27.6825 79.5826 27.5013 79.6843 27.3278C80.6001 25.7666 81.0889 24.8171 81.6668 23.1106C82.2117 21.5007 82.4694 20.7084 82.7852 19.1232C82.8877 18.6095 82.9704 18.0232 83.0373 17.427ZM78.5871 29.0048L77.2554 27.4976L75.2295 25.2049L72.5336 25.0439L72.1893 25.0232C71.2612 25.4627 70.4744 25.7113 69.2845 26.0873C68.9759 26.1846 68.6404 26.2907 68.2684 26.4109C66.5066 26.9792 63.8017 26.9307 63.8017 26.9307C63.8017 26.9307 61.5618 27.0153 60.0579 27.0489C60.2801 27.4388 60.2705 27.8361 60.0305 28.2517C59.7052 28.8151 59.3095 28.9962 58.6098 28.9019C58.0733 28.8299 57.9855 28.8834 56.6501 30.0991L55.252 31.3724L50.5283 31.09L45.8044 30.8076L44.9781 29.8142L44.1519 28.8204L44.2588 26.9314L44.3001 26.2008C42.8467 26.0731 41.3705 25.9452 39.879 25.828C39.8757 25.8864 39.8725 25.9469 39.8688 26.0092L39.7644 27.8703L41.1358 29.4663C42.345 30.8731 42.553 31.055 42.8918 30.9992C43.3951 30.9169 44.1372 31.6038 44.108 32.1246C44.0822 32.5807 43.4478 33.1712 43.0179 33.1392C42.4006 33.0936 41.8754 32.3263 42.0518 31.7275C42.131 31.4576 41.8954 31.108 40.7327 29.7714L39.3174 28.1437L39.4231 26.2761C39.4328 26.1005 39.4414 25.9404 39.4484 25.7942C36.9819 25.5938 34.4945 25.2403 32.0335 24.891C30.2706 24.6405 28.5214 24.392 26.8031 24.2032C23.8179 23.8008 21.2251 23.5677 18.8258 23.3518C16.8041 23.1702 14.9199 23.0007 13.0543 22.7528C9.70945 22.3905 6.73037 22.2992 4.76413 22.3198C4.68364 22.3206 4.60473 22.3218 4.52738 22.3231L6.5192 24.6329L7.87024 26.1869L21.2786 26.99L34.6866 27.7934L37.4408 30.9725L40.195 34.1514L47.1863 34.57L54.1776 34.9888L55.8568 33.4744L57.5359 31.9596L63.811 32.3368L70.0866 32.7134L70.4366 32.2165C70.919 31.5329 71.558 31.2646 72.3649 31.4071C73.9036 31.6788 74.363 33.6422 73.1208 34.6374C72.7035 34.9721 72.4651 35.0511 71.9639 35.021C71.0767 34.9682 70.6892 34.7108 70.3494 33.9489L70.0543 33.2875L63.8384 32.9161L57.6225 32.5446L55.9649 34.0649L54.3072 35.5853L47.1609 35.1581L40.0147 34.7312L37.2786 31.5496L34.5426 28.368L21.1217 27.5657L7.70055 26.7637L6.37017 25.212L3.99794 22.3371C2.52475 22.3903 1.72207 22.5481 1.46017 22.747L1.44663 22.7573C1.13801 22.9915 0.534339 23.4496 0.29411 24.108C0.200316 24.3649 0.122603 24.6663 0.0617464 24.982L4.70086 25.2593L6.33485 27.1237L7.96883 28.9881L20.5954 29.7426L33.2221 30.4971L36.2562 33.9869L39.2904 37.4764L47.8466 37.9909C52.5529 38.2737 56.4215 38.5235 56.4433 38.5457C56.4652 38.568 57.2387 39.4432 58.1623 40.4903L59.8414 42.3941L62.8367 42.5731C63.3835 42.3357 63.9414 42.0727 64.6343 41.7044C65.7701 41.1007 67.2202 40.1546 68.1469 39.531C67.9703 39.1629 67.5878 38.7266 67.0627 38.1271V38.1269L67.0622 38.1266C66.8845 37.9237 66.6902 37.702 66.4822 37.4581L65.3207 36.0964L63.2652 35.9736L61.2097 35.8508L60.7845 36.2669C60.2684 36.7724 59.8553 36.7719 59.4168 36.2655C58.9912 35.7746 59.0279 35.217 59.5149 34.7717C59.9787 34.3478 60.5129 34.4453 60.9318 35.0305C61.1974 35.4016 61.2418 35.4109 63.37 35.5381L65.5375 35.6676L66.7694 37.0612L68.0014 38.4549L68.6541 39.1863C68.9137 39.0083 69.068 38.8999 69.068 38.8999C69.068 38.8999 72.2248 36.5008 73.2212 35.4808C74.2173 34.4608 76.359 31.9548 77.2343 30.837C77.2343 30.837 77.8886 29.9981 78.5871 29.0048ZM58.8011 44.2212L57.1464 42.3065L55.469 40.3661L46.8958 39.8537L38.3224 39.3412L35.3654 35.9256L32.4083 32.5098L19.7568 31.7539L7.10519 30.9975L5.48536 29.1343L3.8655 27.2706L-0.0975342 27.0338C-0.0925238 27.7269 -0.0690093 28.3036 0.0332243 28.9557L3.65565 29.172L5.44528 31.2665L7.23476 33.3609L19.457 34.0916L31.6792 34.8218L34.9088 38.5483L38.1384 42.2747L46.2659 42.7605L54.3939 43.2463L55.914 45.0169C56.8792 44.795 57.8187 44.5626 58.8011 44.2212ZM55.377 45.1388L54.1127 43.6784L45.985 43.1931L37.8572 42.7073L34.623 38.9768L31.3887 35.2462L19.1607 34.5155L6.9326 33.7846L5.19765 31.7646L3.46284 29.7445L0.143483 29.5462C0.15515 29.6004 0.167377 29.6555 0.180188 29.7114C0.349433 30.4497 0.464501 30.932 0.695303 31.4977L2.72251 31.6188L4.74536 33.9484L6.7682 36.2775L9.57931 36.4455L12.3905 36.6137L13.703 38.1227L15.0153 39.6315L18.1209 39.8657C19.8288 39.9945 21.3621 40.0735 21.528 40.0408C21.6938 40.0086 21.9132 39.8194 22.0155 39.6204C22.0343 39.5838 22.0572 39.534 22.0837 39.4761C22.2015 39.2189 22.3906 38.8059 22.6098 38.7144C23.0519 38.5293 23.8342 38.6092 24.301 38.8432C25.2063 39.297 25.1542 41.1931 24.301 41.7435C23.6611 42.1561 22.532 41.9893 22.0155 41.3569L21.7221 40.5574L18.2461 40.3499L14.7701 40.1419L13.4303 38.5897L12.0905 37.0371L9.26999 36.8687L6.44947 36.7001L4.66649 34.5968C3.68581 33.4399 2.7764 32.4234 2.64537 32.3381C2.59687 32.3066 2.02562 32.2476 1.0019 32.1658C1.00954 32.1811 1.01726 32.1964 1.02509 32.2119C1.57823 33.3014 2.17741 34.4639 3.02751 35.511C3.31111 35.8075 3.55237 36.0716 3.78148 36.3222C4.32571 36.9181 4.80133 37.4388 5.6126 38.141C6.39342 38.8168 6.92651 39.2481 7.7529 39.8722C8.73844 40.6161 8.8904 40.7247 10.4039 41.5814C10.7007 41.7493 10.9531 41.893 11.177 42.0204C12.095 42.5428 12.5323 42.7918 13.5702 43.3175C15.4027 44.2462 17.7491 45.0734 17.7491 45.0734C17.7491 45.0734 20.0673 45.9489 21.6234 46.2151C21.6234 46.2151 22.5924 47.6627 23.0681 48.4415C23.6358 49.3712 24.529 50.7468 25.2428 51.5796C26.336 52.8554 27.7876 53.8371 29.2099 54.767C30.3591 55.5181 31.3353 55.9364 32.4146 56.3988C32.8693 56.5937 33.3424 56.7964 33.8541 57.035C35.4007 57.7561 38.1762 57.8008 38.1762 57.8008C38.1762 57.8008 36.3936 55.2025 35.4715 53.4253C35.4042 53.2951 35.3386 53.1697 35.2754 53.0481C34.5904 51.733 34.1452 50.8779 33.6928 49.3675C33.3698 48.2877 33.091 46.5526 33.091 46.5526C33.091 46.5526 36.3262 47.0185 38.4121 47.0652C41.661 47.138 46.7564 46.6341 46.7564 46.6341C46.7564 46.6341 50.9989 46.1768 54.1283 45.4272C54.5412 45.328 54.9432 45.237 55.3384 45.1476C55.3514 45.1448 55.3642 45.1418 55.377 45.1388ZM44.7279 26.2383L44.687 26.9599L44.5934 28.6105L45.3316 29.4517L46.0695 30.2931L50.5344 30.5817L54.9992 30.8706L56.385 29.6337C57.6286 28.5239 57.7596 28.3601 57.6614 28.0392C57.558 27.7019 57.5865 27.3843 57.702 27.1156C57.3237 27.1149 56.8834 27.0982 56.1773 27.0521C55.5878 27.0134 54.8351 26.9771 54.0788 26.9402C53.2872 26.902 52.4913 26.8636 51.8737 26.8219C49.677 26.6743 47.3819 26.472 45.0225 26.2642C44.9247 26.2559 44.8262 26.2471 44.7279 26.2383ZM71.5175 8.71091L71.6474 6.41488L71.8082 3.57811C71.2814 3.22437 70.0227 2.40915 69.0631 2.02652C69.0631 2.02652 69.1565 3.96971 69.4597 5.24734C69.769 6.22293 70.0137 6.63477 70.4161 7.3125C70.4373 7.34796 70.4586 7.38413 70.4807 7.42114C70.6543 7.71378 71.0238 8.18009 71.5175 8.71091ZM23.9871 41.0131C24.2222 40.6184 24.3563 39.7263 24.1126 39.4446C23.8244 39.1124 22.9728 39.3954 22.6098 39.7272C22.2461 40.0598 22.2536 40.5644 22.5231 41.0131C22.7848 41.4486 23.7554 41.4016 23.9871 41.0131Z" fill="#072AC8"/>
</g>
<defs>
<clipPath id="clip0_489_2">
<rect width="247" height="60" fill="white"/>
</clipPath>
</defs>
</svg>
