<svg width="46" height="46" viewBox="0 0 46 46" fill="none" xmlns="http://www.w3.org/2000/svg">
<g clip-path="url(#clip0_455_484)">
<path d="M24.9844 13.6707C25.6095 14.2958 25.9607 15.1437 25.9607 16.0277C25.9607 16.9118 25.6095 17.7596 24.9844 18.3848C24.3593 19.0099 23.5114 19.3611 22.6274 19.3611C21.7433 19.3611 20.8955 19.0099 20.2704 18.3848C19.6452 17.7596 19.2941 16.9118 19.2941 16.0277C19.2941 15.1437 19.6452 14.2958 20.2704 13.6707C20.8955 13.0456 21.7433 12.6944 22.6274 12.6944C23.5114 12.6944 24.3593 13.0456 24.9844 13.6707ZM31.4521 20.1497C32.8983 21.6995 33.9935 23.5427 34.6633 25.5539C35.214 27.3405 35.262 29.2444 34.8019 31.0565C34.3419 32.8686 33.3917 34.5191 32.0555 35.8267L31.1127 36.7695L25.9272 31.5841C25.0491 30.7144 23.8632 30.2266 22.6274 30.2266C21.3915 30.2266 20.2056 30.7144 19.3276 31.5841L14.1421 36.7695L13.1993 35.8267C11.8631 34.5191 10.9129 32.8686 10.4528 31.0565C9.99282 29.2444 10.0408 27.3406 10.5915 25.5539C11.2612 23.5427 12.3565 21.6995 13.8027 20.1497C13.4021 17.002 13.7323 13.8044 14.7676 10.805C15.8029 7.80558 17.5156 5.08513 19.7726 2.85481C20.1435 2.47911 20.585 2.18034 21.0717 1.97561C21.5584 1.77089 22.0807 1.66424 22.6087 1.66179C23.1367 1.65933 23.66 1.76112 24.1485 1.96132C24.6371 2.16151 25.0814 2.45618 25.4558 2.82841C27.7196 5.0603 29.4383 7.78415 30.4783 10.7883C31.5183 13.7924 31.8515 16.9959 31.4521 20.1497ZM14.2213 32.9191L16.3539 30.7865C15.4947 28.5269 14.8156 26.2028 14.3231 23.8361C13.8237 24.6384 13.4208 25.497 13.1229 26.3939C12.7838 27.4918 12.7066 28.6538 12.8973 29.7869C13.088 30.92 13.5415 31.9927 14.2213 32.9191ZM30.9317 23.8361C30.4391 26.2028 29.7601 28.5269 28.9008 30.7865L31.0335 32.9191C31.7133 31.9927 32.1667 30.92 32.3575 29.7869C32.5482 28.6538 32.4709 27.4918 32.1318 26.3939C31.834 25.497 31.4311 24.6384 30.9317 23.8361ZM23.5438 4.68763C23.2915 4.44906 22.956 4.31834 22.6088 4.32327C22.2616 4.3282 21.93 4.4684 21.6846 4.71403C16.9583 9.71752 15.5318 14.8719 16.7857 22.4766C17.1755 24.6385 17.7431 26.7645 18.4828 28.833C19.704 27.9952 21.1502 27.5469 22.6312 27.5469C24.1121 27.5469 25.5583 27.9952 26.7795 28.833C27.5193 26.7645 28.0869 24.6385 28.4766 22.4766C29.723 14.8719 28.2965 9.71752 23.5438 4.68763ZM22.6283 33.712C23.6874 33.7174 24.7015 34.1405 25.4503 34.8894C26.1992 35.6383 26.6223 36.6524 26.6277 37.7114C26.6268 39.4207 24.5941 42.5075 23.7201 43.7567L22.6274 45.3152L21.5347 43.7567C20.6616 42.5065 18.628 39.4207 18.627 37.7114C18.6519 36.6582 19.0816 35.6551 19.8267 34.9103C20.5718 34.1656 21.5751 33.7364 22.6283 33.712ZM23.5702 36.7695C23.4467 36.6453 23.2997 36.5469 23.1379 36.4799C22.9761 36.4129 22.8025 36.3787 22.6274 36.3792C22.2738 36.3793 21.9348 36.5197 21.6848 36.7697C21.4348 37.0197 21.2943 37.3588 21.2943 37.7123C21.5837 38.7207 22.0339 39.6758 22.6274 40.5408C23.2206 39.6749 23.6707 38.7193 23.9605 37.7105C23.9608 37.5356 23.9265 37.3625 23.8595 37.201C23.7925 37.0395 23.6942 36.8928 23.5702 36.7695Z" fill="url(#paint0_linear_455_484)"/>
</g>
<defs>
<linearGradient id="paint0_linear_455_484" x1="-4.49895e-07" y1="-2.37146e-05" x2="47.4026" y2="2.69191" gradientUnits="userSpaceOnUse">
<stop stop-color="#0867F4"/>
<stop offset="1" stop-color="#072AC8"/>
</linearGradient>
<clipPath id="clip0_455_484">
<rect width="32" height="32" fill="white" transform="translate(0 22.6274) rotate(-45)"/>
</clipPath>
</defs>
</svg>
